<?xml version="1.0" encoding="UTF-8" standalone="no"?>
<svg
   xmlns:dc="http://purl.org/dc/elements/1.1/"
   xmlns:cc="http://creativecommons.org/ns#"
   xmlns:rdf="http://www.w3.org/1999/02/22-rdf-syntax-ns#"
   xmlns:svg="http://www.w3.org/2000/svg"
   xmlns="http://www.w3.org/2000/svg"
   xmlns:sodipodi="http://sodipodi.sourceforge.net/DTD/sodipodi-0.dtd"
   xmlns:inkscape="http://www.inkscape.org/namespaces/inkscape"
   version="1.1"
   id="svg2"
   xml:space="preserve"
   width="1350"
   height="1050"
   viewBox="0 0 1350 1050"
   sodipodi:docname="LogoWhite.svg"
   inkscape:version="1.0.1 (3bc2e813f5, 2020-09-07)"><metadata
     id="metadata8"><rdf:RDF><cc:Work
         rdf:about=""><dc:format>image/svg+xml</dc:format><dc:type
           rdf:resource="http://purl.org/dc/dcmitype/StillImage" /><dc:title></dc:title></cc:Work></rdf:RDF></metadata><defs
     id="defs6"><clipPath
       clipPathUnits="userSpaceOnUse"
       id="clipPath18"><path
         d="M 0,1000 H 1000 V 0 H 0 Z"
         id="path16" /></clipPath><clipPath
       clipPathUnits="userSpaceOnUse"
       id="clipPath38"><path
         d="m 445.785,734.79 c -2.387,-0.814 -4.274,-0.72 -6.446,0.497 v 0 c -3.896,2.183 -7.872,4.252 -11.959,6.039 v 0 c -1.361,0.595 -3.386,0.712 -4.733,0.15 v 0 c -22.914,-9.575 -42.471,-23.842 -58.917,-42.438 v 0 c -1.436,-1.624 -1.684,-3.05 -0.876,-4.939 v 0 c 1.578,-3.686 2.931,-7.474 4.646,-11.093 v 0 c 0.996,-2.104 0.867,-3.565 -0.579,-5.499 v 0 c -12.002,-16.048 -20.675,-33.762 -26.073,-53.07 v 0 c -0.322,-1.155 -0.59,-2.325 -0.925,-3.659 v 0 c 15.974,-4.049 31.497,-7.984 47.419,-12.021 v 0 c 6.923,26.134 20.866,47.158 42.278,63.021 v 0 c 21.508,15.936 45.815,23.099 72.799,22.143 v 0 c 3.443,16.225 6.852,32.287 10.288,48.469 v 0 c -1.061,0.172 -1.617,0.303 -2.179,0.346 v 0 c -4.395,0.327 -8.77,0.494 -13.125,0.494 v 0 c -17.555,0 -34.782,-2.703 -51.618,-8.44"
         id="path36" /></clipPath><linearGradient
       x1="0"
       y1="0"
       x2="1"
       y2="0"
       gradientUnits="userSpaceOnUse"
       gradientTransform="matrix(172.78419,0,0,-172.78419,339.92242,675.99359)"
       spreadMethod="pad"
       id="linearGradient48"><stop
         style="stop-opacity:1;stop-color:#f05a28"
         offset="0"
         id="stop44" /><stop
         style="stop-opacity:1;stop-color:#ee4036"
         offset="1"
         id="stop46" /></linearGradient><clipPath
       clipPathUnits="userSpaceOnUse"
       id="clipPath58"><path
         d="M 0,1000 H 1000 V 0 H 0 Z"
         id="path56" /></clipPath><clipPath
       clipPathUnits="userSpaceOnUse"
       id="clipPath74"><path
         d="m 490.991,555.097 11.65,-20.177 h 18.391 l 11.648,20.177 z"
         id="path72" /></clipPath><linearGradient
       x1="0"
       y1="0"
       x2="1"
       y2="0"
       gradientUnits="userSpaceOnUse"
       gradientTransform="matrix(41.688503,0,0,-41.688503,490.99176,545.00873)"
       spreadMethod="pad"
       id="linearGradient84"><stop
         style="stop-opacity:1;stop-color:#f05a28"
         offset="0"
         id="stop80" /><stop
         style="stop-opacity:1;stop-color:#ee4036"
         offset="1"
         id="stop82" /></linearGradient><clipPath
       clipPathUnits="userSpaceOnUse"
       id="clipPath94"><path
         d="m 509.437,557.931 h 0.135 24.744 l 9.927,17.191 -12.441,21.546 z"
         id="path92" /></clipPath><linearGradient
       x1="0"
       y1="0"
       x2="1"
       y2="0"
       gradientUnits="userSpaceOnUse"
       gradientTransform="matrix(34.804966,0,0,-34.804966,509.43674,577.29938)"
       spreadMethod="pad"
       id="linearGradient104"><stop
         style="stop-opacity:1;stop-color:#f05a28"
         offset="0"
         id="stop100" /><stop
         style="stop-opacity:1;stop-color:#ee4036"
         offset="1"
         id="stop102" /></linearGradient><clipPath
       clipPathUnits="userSpaceOnUse"
       id="clipPath114"><path
         d="m 464.631,552.207 9.98,-17.287 h 24.758 l -22.365,38.715 z"
         id="path112" /></clipPath><linearGradient
       x1="0"
       y1="0"
       x2="1"
       y2="0"
       gradientUnits="userSpaceOnUse"
       gradientTransform="matrix(34.736771,0,0,-34.736771,464.63141,554.27808)"
       spreadMethod="pad"
       id="linearGradient124"><stop
         style="stop-opacity:1;stop-color:#f05a28"
         offset="0"
         id="stop120" /><stop
         style="stop-opacity:1;stop-color:#ee4036"
         offset="1"
         id="stop122" /></linearGradient><clipPath
       clipPathUnits="userSpaceOnUse"
       id="clipPath134"><path
         d="m 488.612,593.905 9.123,-13.363 8.183,14.173 11.643,-17.045 12.604,21.832 -19.164,33.182 z"
         id="path132" /></clipPath><linearGradient
       x1="0"
       y1="0"
       x2="1"
       y2="0"
       gradientUnits="userSpaceOnUse"
       gradientTransform="matrix(41.553539,0,0,-41.553539,488.61197,605.17725)"
       spreadMethod="pad"
       id="linearGradient144"><stop
         style="stop-opacity:1;stop-color:#f05a28"
         offset="0"
         id="stop140" /><stop
         style="stop-opacity:1;stop-color:#ee4036"
         offset="1"
         id="stop142" /></linearGradient><clipPath
       clipPathUnits="userSpaceOnUse"
       id="clipPath154"><path
         d="m 451.228,575.466 11.761,-20.369 28.64,49.605 -12.648,18.524 z"
         id="path152" /></clipPath><linearGradient
       x1="0"
       y1="0"
       x2="1"
       y2="0"
       gradientUnits="userSpaceOnUse"
       gradientTransform="matrix(40.399792,0,0,-40.399792,451.22855,589.16132)"
       spreadMethod="pad"
       id="linearGradient164"><stop
         style="stop-opacity:1;stop-color:#f05a28"
         offset="0"
         id="stop160" /><stop
         style="stop-opacity:1;stop-color:#ee4036"
         offset="1"
         id="stop162" /></linearGradient></defs><sodipodi:namedview
     pagecolor="#ffffff"
     bordercolor="#666666"
     borderopacity="1"
     objecttolerance="10"
     gridtolerance="10"
     guidetolerance="10"
     inkscape:pageopacity="0"
     inkscape:pageshadow="2"
     inkscape:window-width="1920"
     inkscape:window-height="1017"
     id="namedview4"
     showgrid="false"
     inkscape:zoom="0.4507806"
     inkscape:cx="653.02195"
     inkscape:cy="384.33992"
     inkscape:window-x="1912"
     inkscape:window-y="-8"
     inkscape:window-maximized="1"
     inkscape:current-layer="g10"
     inkscape:document-rotation="0" /><g
     id="g10"
     inkscape:groupmode="layer"
     inkscape:label="Car_Scanner_InMotion_White"
     transform="matrix(1.3333333,0,0,-1.3333333,0,1333.3333)"><g
       id="g12"
       transform="matrix(1.4823077,0,0,1.4823077,-231.23923,-101.69554)"><g
         id="g14"
         clip-path="url(#clipPath18)"><g
           id="g20"
           transform="translate(434.3979,615.397)"><path
             d="m 0,0 c -0.011,-0.013 0.242,0.218 0.414,0.498 14.929,24.371 36.647,36.571 65.255,37.155 35.626,0.727 64.942,15.015 87.986,42.18 0.925,1.09 1.745,2.27 2.721,3.547 C 134.67,99.848 110.812,109.818 83.955,113.401 80.806,98.66 77.728,84.249 74.619,69.69 38.382,72.354 8.143,60.498 -15.55,34.41 -10.146,22.453 -5.073,11.226 0,0 m 29.142,-101.032 c -0.719,0.561 -1.039,0.866 -1.409,1.093 -24.591,15.116 -36.802,37.103 -37.044,65.969 -0.156,18.668 -4.924,36.242 -13.742,52.703 -0.506,0.943 -1.143,1.815 -1.964,3.104 -1.288,-2.167 -2.368,-3.899 -3.366,-5.676 -6.16,-10.966 -10.108,-22.725 -12.205,-35.348 -14.505,3.661 -28.663,7.236 -43.188,10.903 -4.825,-26.736 -2.898,-52.576 5.979,-77.845 8.226,-23.413 21.52,-43.526 39.835,-60.536 17.653,22.422 39.846,37.503 67.104,45.633 M -47.056,-6.64 c 6.923,26.135 20.867,47.158 42.278,63.021 21.508,15.936 45.815,23.099 72.799,22.143 3.443,16.225 6.853,32.287 10.288,48.47 -1.061,0.171 -1.617,0.303 -2.18,0.345 -22.107,1.648 -43.728,-0.785 -64.741,-7.946 -2.388,-0.814 -4.275,-0.72 -6.447,0.497 -3.895,2.183 -7.872,4.252 -11.959,6.039 -1.361,0.595 -3.386,0.713 -4.733,0.15 -22.914,-9.576 -42.471,-23.842 -58.917,-42.438 -1.436,-1.624 -1.685,-3.05 -0.876,-4.939 1.578,-3.686 2.931,-7.474 4.646,-11.093 0.996,-2.104 0.868,-3.565 -0.579,-5.498 C -79.479,46.063 -88.152,28.348 -93.55,9.041 -93.873,7.886 -94.14,6.715 -94.476,5.381 -78.501,1.332 -62.978,-2.604 -47.056,-6.64 M 99.6,28.953 c 0.729,-0.572 0.978,-0.81 1.264,-0.986 24.618,-15.068 36.814,-37.026 37.246,-65.893 0.438,-29.299 10.848,-54.824 30.622,-76.42 4.524,-4.941 9.707,-9.279 14.629,-13.936 50.47,64.369 37.378,154.311 -16.807,202.641 C 149.172,52.25 126.991,37.125 99.6,28.953 m 29.748,-100.018 c -0.548,-0.822 -0.742,-1.09 -0.913,-1.372 -15.163,-24.927 -37.424,-36.883 -66.507,-37.402 -32.311,-0.576 -59.551,-13.19 -81.877,-36.468 -2.668,-2.782 -5.05,-5.838 -7.566,-8.769 56.943,-46.291 149.004,-42.563 202.308,16.817 -22.035,17.411 -37.251,39.518 -45.445,67.194"
             style="fill:#ffffff;fill-opacity:1;fill-rule:nonzero;stroke:none"
             id="path22" /></g><g
           id="g24"
           transform="translate(563.7461,544.332)"><path
             d="m 0,0 c 8.194,-27.676 23.41,-49.783 45.445,-67.194 -53.304,-59.38 -145.365,-63.108 -202.308,-16.817 2.516,2.931 4.898,5.987 7.566,8.769 22.326,23.278 49.566,35.892 81.877,36.468 29.083,0.519 51.344,12.475 66.507,37.402 C -0.742,-1.09 -0.548,-0.822 0,0"
             style="fill:#ffffff;fill-opacity:1;fill-rule:nonzero;stroke:none"
             id="path26" /></g><g
           id="g28"
           transform="translate(533.998,644.3496)"><path
             d="m 0,0 c 27.391,8.173 49.572,23.297 66.954,45.406 54.185,-48.329 67.276,-138.271 16.807,-202.64 -4.922,4.656 -10.105,8.995 -14.629,13.936 -19.774,21.595 -30.184,47.121 -30.622,76.42 C 38.078,-38.012 25.882,-16.054 1.264,-0.985 0.978,-0.81 0.729,-0.572 0,0"
             style="fill:#ffffff;fill-opacity:1;fill-rule:nonzero;stroke:none"
             id="path30" /></g></g></g><g
       id="g32"
       transform="matrix(1.4823077,0,0,1.4823077,-231.23923,-101.69554)"><g
         id="g34"
         clip-path="url(#clipPath38)"><g
           id="g40"><g
             id="g42"><path
               d="m 445.785,734.79 c -2.387,-0.814 -4.274,-0.72 -6.446,0.497 v 0 c -3.896,2.183 -7.872,4.252 -11.959,6.039 v 0 c -1.361,0.595 -3.386,0.712 -4.733,0.15 v 0 c -22.914,-9.575 -42.471,-23.842 -58.917,-42.438 v 0 c -1.436,-1.624 -1.684,-3.05 -0.876,-4.939 v 0 c 1.578,-3.686 2.931,-7.474 4.646,-11.093 v 0 c 0.996,-2.104 0.867,-3.565 -0.579,-5.499 v 0 c -12.002,-16.048 -20.675,-33.762 -26.073,-53.07 v 0 c -0.322,-1.155 -0.59,-2.325 -0.925,-3.659 v 0 c 15.974,-4.049 31.497,-7.984 47.419,-12.021 v 0 c 6.923,26.134 20.866,47.158 42.278,63.021 v 0 c 21.508,15.936 45.815,23.099 72.799,22.143 v 0 c 3.443,16.225 6.852,32.287 10.288,48.469 v 0 c -1.061,0.172 -1.617,0.303 -2.179,0.346 v 0 c -4.395,0.327 -8.77,0.494 -13.125,0.494 v 0 c -17.555,0 -34.782,-2.703 -51.618,-8.44"
               style="fill:url(#linearGradient48);stroke:none"
               id="path50" /></g></g></g></g><g
       id="g52"
       transform="matrix(1.4823077,0,0,1.4823077,-231.23923,-101.69554)"><g
         id="g54"
         clip-path="url(#clipPath58)"><g
           id="g60"
           transform="translate(463.54,514.3647)"><path
             d="m 0,0 c -27.258,-8.13 -49.451,-23.21 -67.104,-45.632 -18.315,17.009 -31.609,37.123 -39.835,60.535 -8.877,25.269 -10.804,51.109 -5.979,77.845 14.524,-3.667 28.683,-7.242 43.188,-10.903 2.097,12.623 6.044,24.382 12.205,35.348 0.998,1.777 2.078,3.509 3.366,5.676 0.821,-1.289 1.458,-2.161 1.964,-3.103 8.818,-16.462 13.586,-34.036 13.742,-52.704 C -38.211,38.196 -26,16.209 -1.409,1.093 -1.04,0.866 -0.719,0.562 0,0"
             style="fill:#ffffff;fill-opacity:1;fill-rule:nonzero;stroke:none"
             id="path62" /></g><g
           id="g64"
           transform="translate(434.3979,615.397)"><path
             d="m 0,0 c -5.073,11.226 -10.146,22.453 -15.55,34.41 23.693,26.088 53.932,37.944 90.169,35.28 3.109,14.559 6.187,28.97 9.336,43.711 C 110.812,109.818 134.67,99.848 156.376,83.38 155.4,82.103 154.58,80.923 153.655,79.833 130.611,52.668 101.295,38.38 65.669,37.653 37.061,37.069 15.343,24.869 0.414,0.498 0.242,0.218 -0.011,-0.013 0,0"
             style="fill:#ffffff;fill-opacity:1;fill-rule:nonzero;stroke:none"
             id="path66" /></g></g></g><g
       id="g68"
       transform="matrix(1.4823077,0,0,1.4823077,-231.23923,-101.69554)"><g
         id="g70"
         clip-path="url(#clipPath74)"><g
           id="g76"><g
             id="g78"><path
               d="m 490.991,555.097 11.65,-20.177 h 18.391 l 11.648,20.177 z"
               style="fill:url(#linearGradient84);stroke:none"
               id="path86" /></g></g></g></g><g
       id="g88"
       transform="matrix(1.4823077,0,0,1.4823077,-231.23923,-101.69554)"><g
         id="g90"
         clip-path="url(#clipPath94)"><g
           id="g96"><g
             id="g98"><path
               d="m 509.437,557.931 h 0.135 24.744 l 9.927,17.191 -12.441,21.546 z"
               style="fill:url(#linearGradient104);stroke:none"
               id="path106" /></g></g></g></g><g
       id="g108"
       transform="matrix(1.4823077,0,0,1.4823077,-231.23923,-101.69554)"><g
         id="g110"
         clip-path="url(#clipPath114)"><g
           id="g116"><g
             id="g118"><path
               d="m 464.631,552.207 9.98,-17.287 h 24.758 l -22.365,38.715 z"
               style="fill:url(#linearGradient124);stroke:none"
               id="path126" /></g></g></g></g><g
       id="g128"
       transform="matrix(1.4823077,0,0,1.4823077,-231.23923,-101.69554)"><g
         id="g130"
         clip-path="url(#clipPath134)"><g
           id="g136"><g
             id="g138"><path
               d="m 488.612,593.905 9.123,-13.363 8.183,14.173 11.643,-17.045 12.604,21.832 -19.164,33.182 z"
               style="fill:url(#linearGradient144);stroke:none"
               id="path146" /></g></g></g></g><g
       id="g148"
       transform="matrix(1.4823077,0,0,1.4823077,-231.23923,-101.69554)"><g
         id="g150"
         clip-path="url(#clipPath154)"><g
           id="g156"><g
             id="g158"><path
               d="m 451.228,575.466 11.761,-20.369 28.64,49.605 -12.648,18.524 z"
               style="fill:url(#linearGradient164);stroke:none"
               id="path166" /></g></g></g></g><text
       transform="scale(1,-1)"
       style="font-variant:normal;font-weight:500;font-stretch:normal;font-size:167.191px;font-family:'Montserrat Medium';-inkscape-font-specification:Montserrat-Medium;writing-mode:lr-tb;fill:#ffffff;fill-opacity:1;fill-rule:nonzero;stroke:none;stroke-width:1.48231"
       id="text170"
       x="-9.3881645"
       y="-329.60248"><tspan
         x="-9.3881645 106.80946 205.45201 272.82993 313.79166 418.78748 509.90646 608.54907 719.89819 831.24738 930.22437"
         y="-329.60248"
         sodipodi:role="line"
         id="tspan168"
         style="stroke-width:1.48231">Car Scanner</tspan></text><text
       transform="scale(1,-1)"
       style="font-variant:normal;font-weight:300;font-stretch:normal;font-size:60.6268px;font-family:'Montserrat Light';-inkscape-font-specification:Montserrat-Light;writing-mode:lr-tb;fill:#ffffff;fill-opacity:1;fill-rule:nonzero;stroke:none;stroke-width:1.48231"
       id="text174"
       x="334.14032"
       y="-229.24416"><tspan
         x="334.14032 374.03281 403.98245 420.65485 438.17599 477.82593 534.63324 571.97937 595.32074 611.20496 648.55109"
         y="-229.24416"
         sodipodi:role="line"
         id="tspan172"
         style="stroke-width:1.48231">by InMotion</tspan></text></g></svg>
