<?xml version="1.0" encoding="UTF-8" standalone="no"?>
<svg
   xmlns:dc="http://purl.org/dc/elements/1.1/"
   xmlns:cc="http://creativecommons.org/ns#"
   xmlns:rdf="http://www.w3.org/1999/02/22-rdf-syntax-ns#"
   xmlns:svg="http://www.w3.org/2000/svg"
   xmlns="http://www.w3.org/2000/svg"
   xmlns:sodipodi="http://sodipodi.sourceforge.net/DTD/sodipodi-0.dtd"
   xmlns:inkscape="http://www.inkscape.org/namespaces/inkscape"
   version="1.1"
   id="svg2"
   width="640"
   height="640"
   viewBox="0 0 640 640"
   sodipodi:docname="logo.svg"
   inkscape:version="1.0.1 (3bc2e813f5, 2020-09-07)">
  <metadata
     id="metadata8">
    <rdf:RDF>
      <cc:Work
         rdf:about="">
        <dc:format>image/svg+xml</dc:format>
        <dc:type
           rdf:resource="http://purl.org/dc/dcmitype/StillImage" />
        <dc:title />
      </cc:Work>
    </rdf:RDF>
  </metadata>
  <defs
     id="defs6" />
  <sodipodi:namedview
     pagecolor="#ffffff"
     bordercolor="#666666"
     borderopacity="1"
     objecttolerance="10"
     gridtolerance="10"
     guidetolerance="10"
     inkscape:pageopacity="0"
     inkscape:pageshadow="2"
     inkscape:window-width="1920"
     inkscape:window-height="1017"
     id="namedview4"
     showgrid="false"
     inkscape:zoom="0.93912619"
     inkscape:cx="358.62603"
     inkscape:cy="319.40064"
     inkscape:window-x="-8"
     inkscape:window-y="-8"
     inkscape:window-maximized="1"
     inkscape:current-layer="g10"
     inkscape:document-rotation="0"
     inkscape:pagecheckerboard="true" />
  <g
     inkscape:groupmode="layer"
     inkscape:label="Image"
     id="g10">
    <path
       style="fill:#ffffff"
       d="M 106.75,626.43603 106,625.66667 v -1.81428 -1.81429 l 2.25,-0.45583 2.25,-0.45583 5.90342,-0.58999 5.90342,-0.58998 7.59658,-2.53917 7.59658,-2.53917 7.16042,-4.44928 7.16042,-4.44927 7.45388,-7.92351 7.45387,-7.92352 4.07754,-8.31127 4.07754,-8.31128 1.71775,-6.5 1.71775,-6.5 0.0423,-11 0.0423,-11 -1.72297,-6.5 -1.72296,-6.5 -3.82867,-8 -3.82867,-8 -4.70297,-5.74723 -4.70297,-5.74723 -5.96359,-4.82537 -5.9636,-4.82537 -7.23372,-3.57397 -7.23372,-3.57397 -4.5,-1.22236 -4.5,-1.22235 -8,-1.14947 -8,-1.14947 V 474.48161 472.5 l 7.18461,0.13274 7.18461,0.13273 7.31539,2.2103 7.31539,2.2103 8,4.11386 8,4.11387 9.5882,9.5431 9.58821,9.5431 4.67169,9.5 4.6717,9.5 1.9901,7.90996 1.9901,7.90997 -0.0174,9.59003 -0.0174,9.59004 -1.41699,6.6859 -1.417,6.6859 -2.46103,6.09289 -2.46102,6.09289 -3.35462,5.58844 -3.35461,5.58845 -6.3086,6.84493 -6.30861,6.84493 -6.84359,4.54961 -6.84359,4.54961 -5.51716,2.43995 -5.51716,2.43995 -5.83064,1.50262 -5.83065,1.50263 -6.5,0.64835 -6.5,0.64835 -0.75,-0.76937 z M 320.09902,625.61931 318.75511,624 l 1.12468,-1.35515 1.12467,-1.35515 6.74777,-0.57358 6.74777,-0.57359 8,-2.54567 8,-2.54568 6.43306,-3.77559 6.43305,-3.77559 7.10729,-7 7.10728,-7 3.70953,-6.1306 3.70953,-6.1306 2.36718,-6.3694 2.36717,-6.3694 1.2711,-6.88201 1.27109,-6.88201 -0.56032,-9.61799 -0.56033,-9.61799 -2.17648,-7 -2.17648,-7 -3.63287,-7 -3.63286,-7 -8.51847,-8.5 -8.51847,-8.5 -5.6654,-3.32079 -5.66539,-3.32078 -7.03551,-2.44671 -7.03552,-2.44671 -8.29909,-1.15261 -8.29909,-1.15261 -0.65748,-0.98921 -0.65748,-0.98921 0.51447,-1.34069 0.51447,-1.34068 4.64301,0.007 4.64301,0.007 8.47568,2.03177 8.47568,2.03176 7.02432,3.42588 7.02432,3.42587 6.86431,5.2006 6.86431,5.20061 5.28502,6.40727 5.28502,6.40727 3.16188,5.93231 3.16189,5.93231 2.44012,7.17423 2.44011,7.17423 1.06021,8.71969 1.06021,8.71968 -1.13827,8.35125 -1.13827,8.35126 -2.58335,7.83347 -2.58335,7.83347 -3.72775,6.16653 -3.72776,6.16653 -4.36216,5.06151 -4.36217,5.0615 -5.27918,4.4385 -5.27917,4.43849 -7.67284,4.19496 -7.67284,4.19496 -7.59382,2.04903 -7.59382,2.04904 -5.98271,0.62531 -5.9827,0.62532 -1.3439,-1.61931 z M 533.66667,626.33333 533,625.66667 v -1.72635 -1.72634 l 1.58179,-0.60699 L 536.16357,621 h 3.75825 3.75825 l 7.69669,-1.96848 7.69668,-1.96848 8.21328,-4.24482 8.21328,-4.24482 8.5367,-8.5367 8.5367,-8.5367 4.24482,-8.21328 4.24482,-8.21328 1.96848,-7.69668 L 605,559.68007 V 549.5 539.31993 l -2.00584,-7.90997 -2.00584,-7.90996 -2.98796,-6.11013 -2.98797,-6.11013 -4.94383,-6.38987 -4.94382,-6.38987 -4.66156,-3.88268 -4.66156,-3.88269 -5.59057,-3.36646 -5.59056,-3.36647 -5.56025,-2.11899 -5.56024,-2.119 -10,-1.67108 -10,-1.67108 V 474.46077 472.5 l 3.798,-0.31323 3.798,-0.31322 7.54143,1.5596 7.54144,1.5596 5.93935,2.39901 5.93936,2.39901 5.58844,3.35462 5.58845,3.35461 6.84493,6.3086 6.84493,6.30861 4.75785,7.15682 4.75785,7.15683 3.18531,8.53457 3.18532,8.53457 1.23975,7.79887 1.23976,7.79888 -0.60588,8.20112 -0.60588,8.20113 -1.56507,6 -1.56508,6 -3.83123,8 -3.83124,8 -4.71735,6.23629 -4.71735,6.23628 -5.17554,4.39108 -5.17555,4.39108 -5.5,3.4718 -5.5,3.47181 -6.82857,2.71404 -6.82856,2.71405 -7.5094,1.43678 L 539.82406,627 h -2.74536 -2.74537 z M 90.004754,617.2395 83.509509,615.5 l -0.353148,-1.88017 -0.353147,-1.88018 1.212327,-0.74925 1.212328,-0.74926 4.916594,1.29697 4.916595,1.29697 7.219472,0.64054 7.21947,0.64053 8.34978,-1.49444 8.34979,-1.49444 7.45512,-3.54042 7.45511,-3.54041 6.00891,-4.72087 6.00892,-4.72087 4.585,-6.05235 4.58501,-6.05235 2.93963,-6.42311 2.93963,-6.42311 1.39418,-6.57689 1.39419,-6.57689 0.0174,-7.59004 0.0174,-7.59003 -1.972,-7.71045 -1.972,-7.71044 -3.75759,-7.19952 -3.75759,-7.19952 -7.52041,-7.5377 -7.52041,-7.53769 -7.74571,-3.96231 -7.74571,-3.9623 -0.004,-1.78138 -0.004,-1.78139 1.4423,-0.55346 1.4423,-0.55347 6.8077,3.57808 6.8077,3.57807 5.35946,4.39731 5.35947,4.39731 4.39731,5.35947 4.39731,5.35946 3.44006,6.54507 3.44007,6.54506 2.22338,7.95494 2.22338,7.95493 -0.0181,10 -0.0181,10 -1.7103,6.5 -1.7103,6.5 -4.05932,8.27449 -4.05931,8.2745 -6.96014,7.45284 -6.96013,7.45284 -7.17238,4.45673 -7.17239,4.45673 -8,2.72946 -8,2.72947 -12,0.32597 -12,0.32598 -6.495246,-1.73951 z m 213.911616,0.23815 -5.58363,-1.35572 -5.88238,-2.60147 -5.88239,-2.60147 -0.69147,-1.11881 -0.69146,-1.11881 0.54883,-1.43024 0.54884,-1.43024 2.10864,0.50818 2.10865,0.50818 6.57376,2.50089 6.57376,2.50089 8.19835,1.19876 8.19834,1.19876 7.7279,-1.13527 7.72789,-1.13528 6.19044,-2.04471 6.19045,-2.04471 5.96461,-3.85512 5.96461,-3.85511 4.09569,-3.70021 4.09568,-3.7002 3.47875,-4.739 3.47875,-4.73901 3.01772,-6.08226 3.01772,-6.08226 1.48801,-6.3117 1.48801,-6.31171 0.0148,-9.5399 0.0148,-9.5399 -1.51503,-5.9601 -1.51503,-5.9601 -3.59574,-7.36359 -3.59573,-7.3636 -7.00949,-7.37917 -7.00949,-7.37916 -3.37974,-2.0888 -3.37975,-2.0888 V 491.91844 490 h 2.30543 2.30543 l 6.74848,5.56646 6.74849,5.56647 4.93561,6.68353 4.93562,6.68354 3.08705,7.36444 3.08705,7.36443 1.54452,8.13557 1.54452,8.13556 -0.6013,8 -0.6013,8 -1.6109,6 -1.61089,6 -3.48121,6.94907 -3.4812,6.94907 -4.97412,6.25106 -4.97413,6.25107 -6.20357,4.70112 -6.20358,4.70113 -7,3.23103 -7,3.23103 -6.56389,1.61771 -6.56389,1.61771 -9.93611,-0.0833 -9.93611,-0.0833 -5.58363,-1.35572 z M 516.5,617.02734 l -7,-1.86254 -4,-1.66753 -4,-1.66754 -6.25,-4.03232 -6.25,-4.03233 v -1.77555 -1.77555 l 1.6309,-0.62584 1.6309,-0.62583 3.36354,2.56549 3.36354,2.5655 7.40577,3.51699 7.40578,3.51698 8.34979,1.49974 8.34978,1.49973 7,-0.63071 7,-0.63072 4.5,-1.0466 4.5,-1.04661 8.5,-4.02489 8.5,-4.02489 8.04688,-8.11116 8.04689,-8.11116 3.61793,-7 3.61793,-7 1.77279,-6.5 1.77279,-6.5 -0.0258,-11 -0.0258,-11 -2.82807,-8.35223 -2.82808,-8.35223 -3.85275,-5.96096 -3.85275,-5.96096 -4.57095,-4.88671 -4.57095,-4.88671 0.649,-1.0501 0.64899,-1.0501 h 1.85708 1.85708 l 5.53033,6.11121 5.53033,6.11121 4.08509,7.85207 4.0851,7.85207 1.96848,7.69668 1.96848,7.69669 v 9.18007 9.18007 l -1.93186,7.55349 -1.93185,7.55349 -2.96027,5.85648 -2.96026,5.85647 -4.53326,6.15144 -4.53326,6.15145 -6.16784,5.13293 -6.16784,5.13293 -7.02113,3.53578 -7.02113,3.53578 -7.54561,1.92985 -7.54562,1.92984 -9.59003,-0.0551 -9.59004,-0.0551 -7,-1.86254 z m -417,-5.74189 -3,-0.41488 -6,-1.52047 -6,-1.52047 -6.635557,-3.47854 -6.635558,-3.47855 -2.308118,-2.45688 -2.308119,-2.45688 1.464964,-1.46496 1.464964,-1.46497 6.456916,3.97084 6.456916,3.97083 6.021796,2.05027 6.021796,2.05026 7.51457,0.59454 7.51457,0.59453 7.33305,-1.23687 7.33305,-1.23688 8.11862,-4.0635 8.11862,-4.0635 6.53376,-6.62712 6.53376,-6.62713 3.27656,-6.46012 3.27656,-6.46012 1.46157,-5.49244 1.46157,-5.49244 0.0119,-9.0399 0.0119,-9.0399 -1.53119,-5.87865 -1.53119,-5.87864 -3.20002,-6.00385 -3.20002,-6.00385 -4.76879,-5.21781 -4.76879,-5.21782 v -1.5028 -1.5028 l 1.66799,-0.64007 1.66798,-0.64006 4.58202,4.9128 4.58201,4.91279 3.32079,5.53568 3.32078,5.53567 2.63331,7.33461 2.63332,7.3346 -0.0288,11.5 -0.0288,11.5 -2.65293,8 -2.65293,8 -4.03111,6.14349 -4.03111,6.14348 -6.66755,6.23717 -6.66756,6.23717 -8.18881,3.92927 -8.18881,3.92927 -7.88493,1.40519 -7.88493,1.40518 -3.5,-0.11494 -3.5,-0.11494 -3,-0.41489 z m 211.88127,-0.23837 -5.11873,-0.79665 -6.70714,-2.23199 -6.70714,-2.232 -7.38975,-4.94256 -7.38974,-4.94256 -4.42007,-5.05281 -4.42008,-5.05281 -1.24719,-2.33039 -1.24718,-2.33039 0.60149,-1.56746 L 267.93723,578 h 1.48334 1.48335 l 3.02996,4.4039 3.02997,4.4039 5.61993,5.00897 5.61993,5.00896 6.20103,3.05276 6.20104,3.05276 6.44711,1.51959 6.44711,1.5196 h 6.5 6.5 l 6.44711,-1.5196 6.44711,-1.51959 6.55289,-3.21281 6.55289,-3.2128 7.12183,-7.00282 7.12184,-7.00282 3.56877,-7.10709 3.56877,-7.1071 1.68632,-8.32232 1.68632,-8.32233 -0.64579,-6.94842 -0.64579,-6.94843 -2.54053,-7.12216 -2.54053,-7.12215 -0.1906,-2 -0.19061,-2 h 2 2 l 2.19513,4.5 2.19513,4.5 1.55487,6.69741 1.55487,6.6974 v 7.8425 7.84249 l -1.53159,5.9601 -1.53159,5.9601 -3.30173,7 -3.30172,7 -5.11313,6.14184 -5.11313,6.14184 -7.58905,5.07587 -7.58905,5.07586 -7.7145,2.42999 -7.71451,2.42999 -7.5,0.52417 -7.5,0.52417 z m 210.77457,-0.50552 -7.34416,-1.38258 -8.30171,-3.98345 -8.30172,-3.98344 -7.35413,-7.00142 -7.35412,-7.00141 -3.32079,-5.51003 -3.32078,-5.51002 -2.43243,-6.99444 -2.43243,-6.99445 0.63049,-1.64303 0.6305,-1.64303 1.90869,0.30287 1.90869,0.30287 2.82351,8.17609 2.82351,8.17608 4.71836,6.61219 4.71835,6.61219 5.12026,4.04732 5.12025,4.04733 5.8019,2.92879 5.80189,2.92879 6.75001,1.59216 6.75002,1.59216 9,-0.5476 9,-0.54761 6.22278,-2.14156 6.22278,-2.14155 5.77722,-3.80923 5.77722,-3.80923 2.60932,-2.51819 2.60933,-2.51818 3.63185,-4.4322 3.63185,-4.4322 2.88771,-6.40777 2.88772,-6.40778 1.12111,-5.29922 L 590,555.90156 v -8.39176 -8.39177 l 1.09596,-0.67734 1.09596,-0.67734 1.57874,1.57874 1.57874,1.57874 -0.10129,9.28958 -0.10129,9.28959 -2.17111,7 -2.17111,7 -3.14235,6 -3.14235,6 -7.5871,7.63776 -7.5871,7.63775 -8.42285,3.9983 -8.42285,3.99829 -4.5,1.04661 -4.5,1.0466 -7,0.52942 -7,0.52942 z M 98,603.30962 95.5,602.8916 89.309557,600.88409 83.119114,598.87658 77.309557,595.09683 71.5,591.31708 l -4.753742,-5.1197 -4.753742,-5.1197 -1.189402,-2.61045 -1.189402,-2.61046 1.443144,-0.91307 1.443144,-0.91307 0.642437,-0.0153 0.642437,-0.0153 3.808653,4.99424 3.808653,4.99423 3.906476,3.13933 3.906477,3.13933 5.642433,2.81177 5.642434,2.81177 4.5,1.03022 4.5,1.03022 7.64466,0.0244 7.64467,0.0245 6.42746,-1.98524 6.42747,-1.98524 5.92787,-3.83772 5.92787,-3.83772 3.28353,-3.75002 3.28352,-3.75002 2.31012,-3.67702 2.31012,-3.67702 2.30109,-6 2.30108,-6 0.0359,-10 0.0359,-10 -2.24304,-6 -2.24304,-6 -0.5271,-2.10865 -0.52709,-2.10864 1.4956,-0.57392 1.4956,-0.57391 1.58579,1.75228 1.58579,1.75228 2.09706,5.93028 2.09707,5.93028 0.53474,8.5 0.53474,8.5 -1.20371,5.79418 -1.20371,5.79418 -3.95208,7.89602 -3.95209,7.89602 -6.01806,5.96232 -6.01807,5.96232 -6.80289,3.57482 -6.8029,3.57482 -6.39688,1.50788 -6.39689,1.50788 -6,-0.1214 -6,-0.1214 -2.5,-0.41802 z m 209.60112,-0.84001 -5.89887,-1.49087 -6.17754,-3.04119 -6.17754,-3.04119 -5.09914,-4.46061 -5.09914,-4.4606 -4.00801,-6.00204 -4.008,-6.00203 -2.05269,-5.48629 -2.05268,-5.48629 -0.89718,-5.72125 -0.89718,-5.72125 0.5107,-1.33087 0.51071,-1.33087 2.09587,0.30287 2.09587,0.30287 1.22551,7.34171 1.22551,7.3417 2.89117,6.17829 2.89117,6.17829 5.77633,6.23913 5.77632,6.23912 8.3294,4.12738 8.3294,4.12738 9.35429,0.48929 9.3543,0.48929 5.2738,-1.13103 5.2738,-1.13103 5.64193,-2.74476 5.64193,-2.74476 6.28822,-5.86821 6.28821,-5.8682 3.56222,-7.20766 3.56221,-7.20765 1.24657,-7.42414 1.24657,-7.42414 2.18742,-0.31955 L 374,548.8609 v 4.96421 4.96422 l -1.98959,6.35533 -1.98959,6.35534 -2.91501,5 -2.91502,5 -3.62368,4.19201 -3.62368,4.19201 -6.72171,4.46551 -6.72172,4.46552 -6.5,2.21097 -6.5,2.21097 -8.5,0.36174 -8.5,0.36175 z m 213.67463,0.019 -6.22426,-1.35245 -6.96622,-3.66064 -6.96622,-3.66065 -4.9284,-4.7253 -4.92839,-4.7253 -3.60236,-5.43211 -3.60236,-5.43211 -2.12434,-6 -2.12433,-6 -0.53416,-9.12503 -0.53415,-9.12503 1.25172,-5.37497 1.25173,-5.37497 1.97036,-4.67846 1.97036,-4.67845 1.24832,-0.47903 1.24832,-0.47902 1.35646,0.83834 1.35647,0.83834 -2.64177,7.81914 -2.64177,7.81914 -0.61467,5 -0.61467,5 1.09499,7 1.09499,7 3.34107,7 3.34106,7 3.83944,4.41154 3.83943,4.41155 5.96167,3.85321 5.96167,3.85322 6.42747,1.98524 6.42746,1.98524 h 8.28933 8.28933 l 6.50527,-2.00927 6.50527,-2.00928 6.2357,-4.16404 6.2357,-4.16404 4.52483,-5.82668 4.52483,-5.82669 h 0.71709 0.71709 l 1.25228,1.5089 1.25227,1.5089 -2.81111,4.05644 -2.81111,4.05643 -5.13433,4.68467 -5.13434,4.68466 -5.10986,2.77185 -5.10986,2.77185 -7.73449,1.97815 -7.73449,1.97815 -5.59003,-0.0795 -5.59004,-0.0795 z m -428.286941,-8.36023 -5.511192,-1.76412 -4.599165,-2.69529 -4.599164,-2.69529 -5.454885,-5.73682 L 67.369518,575.5 64.544707,569.7036 61.719895,563.9072 61.609948,560.2036 61.5,556.5 h 1.949734 1.949734 l 2.288983,6.39419 2.288982,6.39418 3.929055,5.204 3.929055,5.20399 5.332228,3.53255 5.332229,3.53254 4.5,1.50608 4.5,1.50609 5.11614,0.68861 5.11614,0.68862 5.88386,-1.07566 5.88386,-1.07567 6.105,-2.99104 6.105,-2.99104 4.71002,-5.03539 4.71002,-5.03539 3.1101,-6.64613 3.11009,-6.64612 0.57489,-9.0772 L 148.5,541.5 h 1.98304 1.98303 l 0.65317,4 0.65317,4 -0.91315,6.46897 -0.91315,6.46898 -2.51758,5.49914 -2.51759,5.49914 -3.89482,5.15864 -3.89481,5.15864 -6.16072,4.11397 -6.16072,4.11397 -6.50527,2.00928 L 113.78933,596 106.14466,595.9462 98.5,595.8924 92.988809,594.12828 Z m 214.923011,0.42714 -4.58818,-1.26569 -6.21445,-3.31227 -6.21445,-3.31226 -5.00122,-5.47213 -5.00121,-5.47213 -2.45449,-4.84369 -2.45448,-4.8437 -1.49167,-5.7269 L 273,554.57985 v -5.0798 -5.0798 l 1.55116,-5.95532 1.55116,-5.95531 1.70801,-2.92451 1.708,-2.9245 1.24031,-0.41344 1.24031,-0.41344 0.61753,1.60927 0.61753,1.60926 -2.23972,6.96555 -2.23973,6.96556 0.42609,8.75834 0.42609,8.75834 2.64252,5.75264 2.64251,5.75265 5.08091,5.37231 5.08091,5.37231 5.72822,3.05311 5.72822,3.05311 6.74499,1.17459 6.74498,1.17459 6.63206,-1.15492 6.63206,-1.15493 5.61794,-2.84458 5.61794,-2.84459 4.5,-4.71775 4.5,-4.71776 1.85714,-1.99253 1.85715,-1.99254 1.52511,1.52512 1.52511,1.52511 -2.19593,3.55309 -2.19593,3.55309 -4.68632,4.1331 -4.68633,4.13309 -4.5,2.28432 -4.5,2.28432 -5.4315,1.61153 -5.4315,1.61152 -7.0685,-0.0894 -7.0685,-0.0894 -4.58818,-1.2657 z m 210.85988,-0.90012 -6.72829,-2.29302 -5.64576,-3.88838 -5.64576,-3.88839 -3.76337,-5.04278 -3.76337,-5.04278 -2.18951,-4.36097 -2.18951,-4.36097 -1.47306,-7.06482 -1.47306,-7.06481 0.69332,-5.57422 0.69332,-5.57421 1.86105,-5.41927 1.86106,-5.41928 3.10147,-4.83322 3.10147,-4.83322 4.78095,-4.2985 4.78096,-4.29849 4.45865,-2.3653 4.45864,-2.36531 1.65455,0.63491 1.65455,0.63491 v 1.45799 1.458 l -5.25,3.01619 -5.25,3.01619 -4.67319,4.8072 -4.67319,4.8072 -2.51122,4.77559 -2.51123,4.77559 -1.18903,5.72441 -1.18904,5.72441 0.57314,6.84391 0.57314,6.84392 2.98529,6.37941 2.98529,6.37942 4.71002,5.03539 4.71002,5.03539 6.105,3.00096 6.105,3.00097 6.36633,1.11765 6.36632,1.11766 7.0472,-1.16382 7.04719,-1.16382 0.96926,0.96926 0.96927,0.96927 -0.54762,1.42705 -0.54761,1.42706 -4.52799,1.14016 -4.52799,1.14016 -6.80718,-0.0258 -6.80718,-0.0258 -6.7283,-2.29302 z M 99,587.66682 l -5.5,-1.22402 -4.646007,-2.26027 -4.646007,-2.26026 -4.923111,-4.92311 -4.92311,-4.92311 -2.6509,-5.41384 -2.650899,-5.41384 -1.118709,-6.87419 -1.118708,-6.87418 1.091639,-2.82276 1.091639,-2.82277 1.747087,0.33396 1.747086,0.33395 0.620092,7.61518 0.620091,7.61517 2.481022,5.41927 2.481021,5.41926 3.113669,3.54627 3.113668,3.54628 6.285219,3.38768 6.285218,3.38769 9,0.0204 9,0.0204 4.71723,-2.17927 4.71723,-2.17928 4.84262,-4.5297 4.84262,-4.52971 2.30337,-5.29102 2.30336,-5.29102 0.74397,-1.5 0.74397,-1.5 1.64584,-0.32391 1.64584,-0.3239 0.54269,1.41422 0.54268,1.41422 -2.11834,5.66177 -2.11834,5.66177 -3.80734,4.81665 -3.80734,4.81664 -5.10131,3.2735 -5.10132,3.27351 -4.26871,1.28203 -4.26872,1.28203 -5,0.57116 -5,0.57115 -5.5,-1.22402 z m 215.17429,0.23205 -5.32571,-0.69886 -6.27929,-3.09128 -6.27929,-3.09129 -4.71495,-5.04065 -4.71494,-5.04066 -2.68005,-5.71806 L 281.5,559.5 v -10 -10 l 2.67759,-5.71268 2.67759,-5.71268 2.82241,-3.56092 2.82241,-3.56092 3.72306,-2.59373 3.72305,-2.59373 1.52695,0.58595 1.52694,0.58594 v 1.37485 1.37485 l -4.94297,4.16797 -4.94296,4.16797 -2.99299,6.23856 -2.99299,6.23857 -0.6453,5.15852 -0.6453,5.15852 1.60892,6.34148 1.60893,6.34148 3.57691,5.22504 3.57692,5.22504 4.60017,3.04702 4.60018,3.04703 4.97674,1.47794 L 315.363,583 h 4.85005 4.85004 l 6.11011,-2.05835 6.11011,-2.05834 1.08587,1.08587 1.08587,1.08587 -1.08294,1.72247 -1.08294,1.72248 -4.39458,1.61425 -4.39459,1.61425 -4.5,0.43461 -4.5,0.43462 z m 197.2107,-6.30588 -5.11502,-3.46432 -3.00191,-3.81433 -3.00191,-3.81434 -2.05338,-4.05394 -2.05337,-4.05394 -1.28144,-6.20409 -1.28143,-6.2041 1.09283,-6.37992 1.09283,-6.37991 2.67359,-5.36205 2.6736,-5.36205 4.53766,-4.63827 4.53767,-4.63827 5.21471,-2.6384 5.2147,-2.63839 5.98583,-1.11319 5.98584,-1.11318 5.58527,0.69783 5.58528,0.69784 1.66625,1.2184 1.66626,1.21839 -0.56934,1.48369 -0.56935,1.48369 -11.23508,-0.0101 -11.23508,-0.01 -5.21657,2.74991 -5.21658,2.74991 -3.53352,3.53351 -3.53351,3.53352 -2.74914,5.21658 -2.74914,5.21657 v 10 10 l 2.66283,5 2.66283,5 3.8364,3.63354 3.8364,3.63354 4.31539,2.67028 4.31539,2.67029 -0.39251,1.19617 -0.39251,1.19618 -2.42288,0.27865 -2.42288,0.27865 z m -414.070702,-2.3867 -5.185712,-1.85543 -4.117745,-2.72499 -4.117745,-2.725 -2.981557,-4.70043 L 77.929973,562.5 76.464986,557.5685 75,552.637 V 549 545.363 l 1.554242,-5.2337 1.554242,-5.2337 1.458493,-0.55968 1.458493,-0.55967 1.419537,1.17811 1.419537,1.17811 -1.432272,4.05949 L 81,544.25145 l 0.0098,5.62428 0.0098,5.62427 2.363753,5 2.363753,5 2.876478,2.69105 2.876478,2.69105 4.5,2.03699 4.499998,2.03699 5.5,0.0164 5.5,0.0164 3.70822,-1.02989 3.70822,-1.0299 5.5469,-5.06955 5.5469,-5.06956 1.49488,0.57364 1.49488,0.57364 v 1.7028 1.7028 l -4.30885,4.12861 -4.30885,4.12861 -4.77744,2.24566 -4.77744,2.24566 -6.16371,0.48517 -6.16371,0.48518 -5.18571,-1.85543 z m 214.636272,0.43173 -4.54944,-1.22699 -3.67162,-2.26919 -3.67162,-2.26919 -3.97497,-4.5158 -3.97497,-4.51581 -1.72831,-5.17052 -1.7283,-5.17052 0.0479,-6.13387 0.0479,-6.13387 2.55757,-5.58647 2.55757,-5.58647 4.59793,-4.46867 4.59792,-4.46867 5.64345,-2.11148 5.64346,-2.11149 3.07752,0.3005 3.07753,0.30049 v 2 2 l -4.5,1.14405 -4.5,1.14405 -2.55637,1.00758 -2.55637,1.00758 -3.21324,2.70377 -3.21325,2.70376 -2.57517,4.39421 -2.57518,4.39422 -0.53467,5.89634 -0.53466,5.89635 1.58637,4.65574 1.58638,4.65575 3.06486,3.86971 3.06487,3.8697 5.17456,2.5786 5.17456,2.57859 h 2.11252 2.11253 l 1.90338,1.39179 1.90339,1.39178 -1.3347,1.60822 -1.3347,1.60821 -1.12755,-0.0675 -1.12756,-0.0675 -4.54944,-1.22699 z m -215.782177,-9.2414 -5.224306,-2.60338 -2.441099,-3.20045 -2.441098,-3.20044 -1.53094,-3.66406 L 83,554.06424 v -4.3829 -4.38289 l 1.138103,-3.39923 1.138103,-3.39922 2.412788,-3.25 2.412789,-3.25 H 92.050891 94 v 2.09227 2.09227 l -1.996609,2.53828 -1.996608,2.53827 -1.02367,3.80162 -1.02367,3.80162 0.952275,4.23827 0.952275,4.23827 1.909951,2.57956 1.909951,2.57957 3.181343,2.16604 3.181342,2.16603 3.79594,0.64132 3.79595,0.64132 4.43076,-1.64641 4.43077,-1.64641 2,-0.16094 2,-0.16095 0.30056,2.1051 0.30057,2.10511 -4.98595,2.14489 -4.98594,2.1449 h -4.86828 -4.86827 z M 303.30812,565.75 l -3.08421,-3.25 -1.81145,-3.5 -1.81145,-3.5 -0.0505,-6.02102 -0.0505,-6.02103 2.5546,-4.96974 2.5546,-4.96975 4.15241,-3.16715 4.15241,-3.16714 5.04299,-1.08153 5.04299,-1.08153 4.9347,1.05831 4.93471,1.0583 1.22939,1.48133 1.22939,1.48133 -1.492,1.492 -1.492,1.492 -4.46088,-1.1931 -4.46089,-1.19311 -3.59946,0.67526 -3.59945,0.67527 -3.26981,2.22565 -3.2698,2.22565 -1.95191,2.63576 -1.95191,2.63577 -0.51305,4.55176 -0.51305,4.55176 0.63779,3.39975 0.6378,3.39975 3.48522,4.07169 3.48521,4.07169 V 567.40896 569 h -1.80383 -1.80384 l -3.08421,-3.25 z m -205.003786,-2.68082 -3.195666,-1.9737 -1.654554,-2.52517 -1.654554,-2.52517 -0.805576,-3.57181 -0.805575,-3.57182 0.960347,-3.47809 0.960347,-3.47809 3.049041,-3.47266 L 98.207184,535 h 1.927796 1.92779 l 0.63537,1.65576 0.63538,1.65576 -1.94752,1.59424 L 99.438486,541.5 97.719243,543.97251 96,546.44501 v 3.26172 3.26172 l 2.86335,3.20464 2.86335,3.20465 4.88665,0.56113 L 111.5,560.5 v 2 2 l -5,0.27144 -5,0.27145 z m 408.004916,1.21993 -1.19076,-0.41628 -1.68404,-5.07018 -1.68404,-5.07018 0.47689,-6.61624 0.47689,-6.61623 2.5615,-5 2.56151,-5 3.8364,-3.64398 3.8364,-3.64397 4.5,-2.34885 4.5,-2.34886 9,-0.007 9,-0.007 5.30355,2.93808 5.30356,2.93807 3.44644,3.81481 3.44645,3.8148 v 1.52851 1.5285 l -1.57702,0.60516 -1.57702,0.60516 -4.67298,-4.52095 -4.67298,-4.52095 -2.12328,-1.08296 -2.12328,-1.08296 -4.56203,-1.02237 -4.56202,-1.02237 -4.59285,0.62952 -4.59286,0.62952 -5.21547,3.11658 -5.21547,3.11659 -3.1979,5.35154 -3.19789,5.35154 -0.61518,5.14209 -0.61518,5.14209 1.54588,5 1.54588,5 0.0108,1.14301 0.0108,1.14301 -1.25,0.45968 -1.25,0.45968 -1.19075,-0.41627 z m 35.04927,-4.79721 -0.57871,-1.5081 1.61009,-3.39303 1.6101,-3.39303 v -2.14853 -2.14853 l -1.41469,-2.7357 -1.41468,-2.7357 -2.52391,-1.35076 -2.5239,-1.35075 -6.13861,0.69451 -6.13862,0.6945 0.32721,-2.30757 0.3272,-2.30757 3.979,-1.30003 3.97899,-1.30003 4.01834,0.67889 4.01833,0.6789 3.64286,3.64286 3.64287,3.64286 1.0156,3.67821 1.0156,3.67821 -0.80557,3.57182 -0.80558,3.57181 -1.62327,2.47743 L 544.95389,561 h -1.50833 -1.50833 z m -440.69166,-4.30752 -1.643107,-1.81561 -0.628864,-3.14432 -0.628863,-3.14432 3.121794,-3.1218 3.1218,-3.12179 1.24519,0.41006 1.24519,0.41006 0.29826,2.00917 0.29825,2.00918 -1.54825,1.28494 L 104,548.24489 V 549.5 550.75511 L 105.5,552 107,553.24489 V 555.12244 557 h -2.34501 -2.34501 z m 204.249,-0.86162 -1.08996,-2.82276 0.46349,-4.24362 0.4635,-4.24362 2.60635,-3.4171 2.60635,-3.4171 4.47407,-1.70867 4.47406,-1.70866 3.43139,0.64373 3.43138,0.64374 3.35483,2.26082 3.35484,2.26082 0.3507,1.82105 0.3507,1.82105 -1.05598,1.05598 -1.05598,1.05598 -3.84155,-2.6622 L 323.3925,539 h -3.68047 -3.68048 l -3.17669,2.83838 -3.1767,2.83837 -0.0891,5.89808 -0.0891,5.89809 -1.74709,0.3363 -1.74708,0.33631 -1.08997,-2.82277 z M 533,555.12244 v -1.87755 L 534.5,552 536,550.75511 v -1.77057 -1.77056 l -1.57014,-0.60252 -1.57013,-0.60252 0.32013,-2.17614 0.32014,-2.17614 1.24519,-0.41006 1.24519,-0.41006 3.1218,3.12179 3.12179,3.1218 -0.62886,3.14432 -0.62886,3.14432 -1.64311,1.81561 L 537.69002,557 H 535.34501 533 Z M 552.70124,553.3679 552,552.66667 l -0.006,-2.08334 -0.006,-2.08333 -1.04898,-3.77733 -1.04897,-3.77734 -3.17983,-3.62162 -3.17982,-3.62162 -3.23351,-1.35105 L 537.06339,531 h -3.56424 -3.56424 l -3.70423,1.54773 -3.70424,1.54773 -2.13652,2.00716 -2.13652,2.00716 -1.779,3.94511 -1.779,3.94511 h -1.78911 -1.78911 l -0.59083,-0.95598 -0.59082,-0.95598 1.58249,-3.79402 1.58249,-3.79402 3.19932,-3.37601 3.19932,-3.376 4.46717,-2.01685 4.46716,-2.01685 5.03284,0.0236 5.03283,0.0236 4.26635,1.7344 4.26634,1.7344 3.85088,4.37483 3.85088,4.37483 1.21014,4.32221 1.21015,4.3222 -0.32737,3.42966 -0.32737,3.42965 -1.54876,0.29276 -1.54877,0.29276 -0.70123,-0.70124 z M 312.66667,549.33333 312,548.66667 v -1.37879 -1.37879 l 2.45455,-2.45454 L 316.90909,541 H 320 h 3.09091 l 2.45454,2.45455 2.45455,2.45454 v 1.57684 1.57684 l -1.53725,0.5899 -1.53724,0.58989 -1.7915,-1.62128 L 321.34252,547 h -1.54882 -1.54881 L 317,548.5 315.75511,550 h -1.21089 -1.21089 z M 129,416.91234 l -4.5,-0.88991 -3.94536,-2.77037 -3.94535,-2.77036 -2.36114,-4.58813 -2.36113,-4.58813 -0.57133,-5.53567 -0.57133,-5.53566 1.22313,-5.09859 1.22313,-5.09859 2.81483,-3.88576 2.81483,-3.88576 4.83121,-2.33874 4.8312,-2.33875 6.6059,0.0605 6.6059,0.0605 4.96671,2.70322 4.96671,2.70322 2.64288,4.07593 2.64289,4.07594 1.10336,5.31488 1.10337,5.31489 -1.02165,5.52661 -1.02165,5.52662 -1.4537,2.7749 -1.45369,2.77489 -2.12302,2.24914 -2.12301,2.24914 -3.71185,1.86945 -3.71184,1.86946 -4.5,0.53253 -4.5,0.53254 -4.5,-0.88992 z m 13.36416,-11.37403 2.65621,-2.46169 0.98982,-2.60341 L 147,397.8698 v -5.53377 -5.53377 l -1.63484,-3.44518 -1.63485,-3.44518 -2.8155,-1.45595 L 138.09932,377 h -3.82715 -3.82716 l -2.22822,1.5607 -2.22821,1.56071 -1.66744,3.18929 -1.66744,3.1893 v 6 6 l 1.66744,3.1893 1.66744,3.18929 2.22821,1.56071 2.22822,1.5607 h 4.63147 4.63147 z M 117.02363,397 h 0.87699 l 0.79969,1.42773 0.79969,1.42773 0.0535,-6.70741 0.0535,-6.70741 2.44646,-4.37087 2.44646,-4.37087 3.5,-1.91016 3.5,-1.91016 4.36424,0.45075 4.36423,0.45075 2.57398,1.92175 2.57397,1.92175 2.01252,2.69554 2.01252,2.69555 0.64835,7.74267 0.64836,7.74266 0.15091,-1.25 L 151,397 h 1.5 1.5 l 0.0859,1.25 0.086,1.25 0.95355,-3 0.95356,-3 -0.5932,-4.89507 -0.5932,-4.89508 -1.8399,-3.60492 -1.8399,-3.60493 -2.04021,-1.84508 -2.04022,-1.84508 -3.81619,-1.36103 -3.8162,-1.36102 -5,-0.0219 -5,-0.0219 -4.04137,1.83574 -4.04137,1.83574 -2.6702,3.17336 -2.6702,3.17335 -1.03285,3.71894 -1.03286,3.71895 0.008,4 0.008,4 0.6959,2.5 0.69591,2.5 0.36376,-1.75 0.36377,-1.75 h 0.87698 z M 428,417.07439 l -3.5,-0.71685 -3.29422,-1.72732 -3.29423,-1.72732 -1.95203,-3.20145 -1.95204,-3.20145 -0.004,-2.67857 -0.004,-2.67857 1.57143,-1.57143 L 417.14234,398 h 0.84678 0.84679 l 1.62438,0.62333 1.62438,0.62334 1.96067,3.84323 1.96067,3.84323 2.14089,1.14577 2.14089,1.14577 3.89506,-0.52244 3.89507,-0.52244 1.46078,-1.21234 L 441,405.75511 V 403 400.24489 l -1.25,-1.006 -1.25,-1.00601 -8.68557,-2.62893 -8.68557,-2.62893 -2.92741,-2.92742 -2.92741,-2.92741 -0.58228,-2.91141 -0.58229,-2.91141 0.60963,-2.39868 0.60962,-2.39869 1.40512,-2.18052 1.40513,-2.18051 2.4366,-1.59653 2.43659,-1.59652 5.03185,-0.95427 5.03185,-0.95427 5.19486,1.1141 5.19486,1.1141 3.26721,3.26721 L 450,375.8 v 3.02857 3.02857 l -1.57143,1.57143 L 446.85714,385 H 445.42857 444 l -1.75,-1.89502 -1.75,-1.89501 -2.17433,-2.60499 L 436.15134,376 h -3.35317 -3.35316 l -2.2225,1.5567 L 425,379.11341 v 1.28831 1.2883 l 1.75,1.57056 1.75,1.57056 6.44002,1.66105 6.44002,1.66104 3.78937,1.9332 3.78938,1.93319 1.5206,2.94053 1.52061,2.94053 -0.004,4.29966 -0.004,4.29966 -1.95703,3.20966 -1.95703,3.20967 -3.78923,1.90893 -3.78923,1.90893 -4.5,0.52702 -4.5,0.52703 -3.5,-0.71685 z m 21,-17.99766 v -0.92328 l -2.46151,-2.92534 -2.46151,-2.92534 -7.28849,-2.2071 -7.28849,-2.20711 -2.19711,-0.89874 -2.19711,-0.89875 -1.69474,-2.5865 -1.69474,-2.5865 1.14409,-2.51099 1.14408,-2.511 3.65942,-1.52901 3.65942,-1.529 3.29172,0.61753 3.29172,0.61753 3.39255,3.96344 3.39256,3.96343 h 1.04708 1.04708 l 0.65255,-1.7005 0.65254,-1.7005 -1.86664,-2.5495 -1.86664,-2.5495 -3.42891,-1.74845 -3.42892,-1.74844 -4.0066,-0.002 -4.0066,-0.002 -3.40353,0.97612 -3.40353,0.97612 -2.32456,2.18381 -2.32456,2.18381 -0.60381,3.21859 -0.60381,3.21859 1.54445,2.98663 1.54445,2.98664 3.29405,1.5522 3.29405,1.55221 6.5,1.65626 6.5,1.65627 2.1976,1.41509 2.19761,1.4151 1.54396,-0.59247 1.54397,-0.59248 0.61542,1.60376 0.61542,1.60375 H 448.60699 449 v -0.92327 z m 25.45108,18.01805 -4.04892,-0.6758 -3.4157,-1.99488 -3.41569,-1.99487 -2.03539,-3.46461 L 459.5,405.5 l -0.33029,-17.09828 -0.33028,-17.09829 1.65171,-1.65171 L 462.14286,368 h 2.86955 2.86956 l 0.80901,1.25 0.80902,1.25 0.5,16.64804 0.5,16.64804 1.90499,2.10196 1.90499,2.10196 h 5.19002 5.19002 l 1.90499,-2.10183 1.90499,-2.10183 0.26697,-15.14817 0.26697,-15.14817 0.51295,-2.29329 0.51294,-2.29329 2.22009,-0.82131 2.22008,-0.82131 2.27398,1.03604 2.27397,1.03604 0.56525,2.25213 0.56525,2.25214 -0.33922,15.82642 L 499.5,405.5 l -2.05112,3.5 -2.05112,3.5 -3.94888,2.13766 -3.94888,2.13766 -4.5,0.49763 -4.5,0.49764 z M 464.5,397 h 1.35335 l 0.47166,1.75 0.47166,1.75 -0.14833,-15 -0.14834,-15 h -2 -2 l -0.14834,15 -0.14833,15 0.47166,-1.75 0.47166,-1.75 z m 30,0 h 1.35335 l 0.47166,1.75 0.47166,1.75 -0.14833,-15 -0.14834,-15 h -2 -2 l -0.14834,15 -0.14833,15 0.47166,-1.75 0.47166,-1.75 z M 75.860784,415.09002 73.5,413.18003 73.224736,393.34002 72.949471,373.5 74.254268,371 75.559066,368.5 H 79 82.440934 l 1.264791,2.5 1.264791,2.5 0.01474,16.75 L 85,407 h 9.277494 9.277496 l 2.2225,1.5567 2.22251,1.55671 v 2.46804 2.46805 l -2.5651,0.97525 L 102.8698,417 H 90.545684 78.221568 Z m 4.059982,-17.15921 0.920766,1.43082 0.629372,-3.43082 L 82.100275,392.5 81.800138,381.5 81.5,370.5 H 79 76.5 l -0.307437,10 -0.307438,10 0.644038,4.41889 0.644037,4.4189 0.9134,-1.4189 L 79,396.5 Z M 166.5567,414.77749 165,412.55499 v -20.08637 -20.08636 l 1.41736,-1.94113 1.41737,-1.94113 12.0032,-0.33193 12.00319,-0.33194 4.4951,1.9884 4.4951,1.98839 1.63004,2.48777 1.63005,2.48777 0.55229,3.40335 0.55229,3.40336 -1.54898,3.70722 -1.54897,3.70722 -3.60147,2.12491 -3.60147,2.12492 1.94836,2.12028 1.94836,2.12028 3.10409,4.94578 3.10409,4.94578 v 2.60422 2.60422 l -1.2,1.2 -1.2,1.2 h -2.82017 -2.82017 l -4.62294,-7.25 -4.62293,-7.25 -2.54399,-2.75 -2.54398,-2.75 H 179.31291 176 v 8.06574 8.06574 l -1.03518,1.93426 L 173.92963,417 h -2.90811 -2.90811 z M 170.56955,397 H 172 l 0.13164,2.25 0.13164,2.25 0.61836,-3.5 0.61836,-3.5 4.92082,-0.31177 4.92082,-0.31177 2.59852,1.92118 2.59852,1.92117 2.48066,0.7061 2.48066,0.7061 -1.33749,-0.92859 -1.33749,-0.9286 0.33749,-2.3278 0.33749,-2.32781 3.18709,-0.82139 3.18708,-0.8214 2.06292,-2.62257 L 202,385.73028 v -3.31809 -3.31808 l -1.13856,-2.49887 -1.13855,-2.49886 -3.328,-1.57924 -3.328,-1.57923 -12.28345,0.28104 L 168.5,371.5 l -0.12802,15 -0.12802,15 0.44757,-2.25 0.44757,-2.25 z m 2.84468,-8.48573 -0.67301,-2.68147 0.59834,-5.05201 0.59833,-5.05202 0.62204,-0.61438 0.62204,-0.61439 7.94563,0.11008 7.94563,0.11008 2.46338,2.31424 2.46339,2.31423 v 3.6707 3.67069 l -2.10354,1.90499 -2.10355,1.90499 -8.85284,0.34787 -8.85284,0.34787 z M 191.06574,386.96482 193,385.92963 v -3.48956 -3.48957 l -2.68207,-1.01972 -2.68207,-1.01972 -5.56793,0.29447 L 176.5,377.5 l -0.31663,3.85516 -0.31664,3.85516 0.53525,1.39484 0.53525,1.39484 h 6.09713 6.09712 z M 214.45455,414.54545 212,412.09091 V 392.5 372.90909 l 2.45455,-2.45454 L 216.90909,368 h 14.47403 14.47402 l 1.57143,1.57143 1.57143,1.57143 v 1.72857 1.72857 l -1.2,1.2 -1.2,1.2 H 235.31905 224.0381 l -0.60193,2.39829 -0.60193,2.39828 0.33288,2.35172 L 223.5,386.5 234,387 l 10.5,0.5 1.25,0.80902 1.25,0.80901 v 2.38197 2.38197 l -1.25,0.80901 -1.25,0.80902 -10.5,0.5 -10.5,0.5 -0.31111,4.3239 -0.31111,4.32391 1.18356,1.42609 1.18355,1.4261 h 11.39899 11.399 l 1.1926,2.61747 1.1926,2.61748 -2.32482,1.88252 L 245.77843,417 H 231.34376 216.90909 Z M 220.43158,395.75 221.0381,393 H 232.51905 244 v -1.46725 -1.46725 L 232.75,389.78275 221.5,389.5 v -7 -7 l 11.6532,-0.2809 11.6532,-0.2809 1.20942,-1.45726 1.20943,-1.45727 -1.40861,-0.54054 -1.40861,-0.54053 -14.45402,0.2787 L 215.5,371.5 l -0.27956,13.32677 -0.27956,13.32677 2.02956,-0.64416 2.02956,-0.64416 0.0789,1.81739 0.0789,1.81739 0.33359,-1 0.33358,-1 0.60652,-2.75 z m 36.77374,19.9974 -1.03956,-1.2526 -0.33288,-21.33007 L 255.5,371.83467 257.86078,369.91733 260.22157,368 h 3.66671 3.66671 l 2.10092,1.47154 2.10092,1.47154 3.27646,12.02846 L 278.30976,395 h 0.71352 0.71353 l 3.1075,-11.75 3.1075,-11.75 2.13488,-1.75 2.13488,-1.75 H 294 h 3.77843 l 2.36079,1.91656 2.36078,1.91655 -0.33687,21.33345 -0.33687,21.33344 -1.03558,1.25 -1.03557,1.25 h -2.84237 -2.84237 L 293.03518,415.06574 292,413.13148 v -11.73241 -11.7324 l -0.54752,0.54752 -0.54752,0.54752 -2.96611,11.30547 -2.96612,11.30547 -1.64135,1.81368 L 281.69002,417 H 279 276.30998 l -1.64136,-1.81367 -1.64135,-1.81368 -2.96612,-11.30547 -2.96611,-11.30547 -0.54752,-0.54752 L 266,389.66667 v 12.09523 12.09524 l -1.57143,1.57143 L 262.85714,417 h -2.30612 -2.30613 z m 7.39459,-36.45048 1.09992,-0.36353 1.04578,1.28331 1.04579,1.2833 2.21184,8.24255 2.21184,8.24256 0.831,-0.51359 0.831,-0.51358 1.10495,1.77103 1.10496,1.77103 -0.67346,-3.5 -0.67347,-3.5 -2.65117,-11 -2.65117,-11 H 263.96886 258.5 l -0.32735,6 -0.32734,6 0.74987,8.5 0.74986,8.5 0.40081,-1.75 0.4008,-1.75 H 261.07332 262 l 0.19767,2.25 0.19768,2.25 0.55232,-10.91977 L 263.5,379.66046 Z M 296.99623,397 h 0.85712 l 0.4001,1.75 0.40009,1.75 0.75578,-9.5 0.75579,-9.5 -0.33256,-5 -0.33255,-5 h -5.46886 -5.46886 l -2.65117,11 -2.65117,11 -0.66763,3.5 -0.66763,3.5 1.40387,-2.40139 1.40386,-2.40139 0.4705,1.40139 0.4705,1.40139 2.31586,-8.75417 2.31586,-8.75418 1.30363,-1.08191 1.30363,-1.08192 1.04381,0.64511 1.0438,0.6451 0.13618,10.69099 0.13618,10.69098 0.43337,-2.25 0.43337,-2.25 z m 55.87621,18.34907 -1.37244,-1.65093 -0.30795,-20.43615 -0.30796,-20.43614 1.58101,-2.41293 L 354.04611,368 h 2.8545 2.8545 l 1.37245,1.65807 1.37244,1.65806 v 21.18885 21.18884 l -1.37244,1.65309 L 359.75511,417 H 357 354.24489 Z m 7.05462,-32.84907 0.0423,-10 -0.85451,-1.34839 -0.85451,-1.3484 -1.88018,0.36066 -1.88017,0.36066 -0.28014,12.77267 -0.28014,12.77268 0.99973,1.71506 0.99973,1.71506 0.0304,-1.25 L 356,397 h 1 1 l 0.115,1.75 0.115,1.75 0.82737,-4 0.82737,-4 0.0423,-10 z m 12.98777,32.8987 -1.41483,-1.70343 v -20.93333 -20.93332 l 2.48486,-2.01478 2.48486,-2.01478 11.01514,0.35511 11.01514,0.35512 3.3869,1.99535 3.38691,1.99536 1.92463,3.5 1.92463,3.5 -0.4219,4.82449 -0.4219,4.82449 -1.95417,2.67551 -1.95417,2.67551 -3.4533,1.72144 -3.4533,1.72144 -7.23217,0.67216 -7.23216,0.67216 -0.0147,6.1064 -0.0147,6.1064 -1.25807,2.5 -1.25806,2.5 -3.06237,0.30107 -3.06237,0.30106 -1.41482,-1.70343 z m 4.7623,-17.5957 0.52487,1.30301 1.27895,-1.74907 1.27895,-1.74907 8.91724,-0.55393 8.91723,-0.55394 2.74745,-1.8023 2.74745,-1.8023 0.95536,-2.5128 L 406,385.8698 v -3.91912 -3.91913 L 403.08427,374.76578 400.16853,371.5 H 387.33427 374.5 l -0.31408,8.5 -0.31409,8.5 0.65606,5.4102 0.65605,5.41021 0.98416,-1.41021 0.98416,-1.4102 z m 3.07287,-5.35923 -0.75,-0.7771 v -7.79815 -7.79815 l 2.12125,-1.13526 2.12125,-1.13526 5.51292,0.6888 5.51293,0.68879 2.36582,2.36583 2.36583,2.36582 v 3.87114 3.87114 l -2.36427,2.22112 -2.36427,2.22112 -6.88573,0.56363 -6.88573,0.56363 z M 395.60588,387.91213 397,386.75511 v -3.32085 -3.32085 L 394.77749,378.5567 392.55499,377 H 387.77749 383 v 5.83333 5.83334 l 0.75,0.76748 0.75,0.76748 4.85588,-0.56624 4.85587,-0.56624 z m 113.95082,26.86536 -1.5567,-2.2225 0.0136,-19.0275 0.0137,-19.02749 0.5711,-2.1281 0.5711,-2.1281 2.4623,-1.1219 2.4623,-1.1219 h 3.45294 3.45295 l 1.94725,1.94725 1.94726,1.94726 1.11487,4.30274 1.11487,4.30275 2.06664,7.82123 2.06665,7.82123 0.72606,-0.82123 0.72607,-0.82123 2.85946,-11 2.85947,-11 2.24024,-2.25 2.24025,-2.25 h 3.82295 3.82295 l 2.2225,1.5567 2.22251,1.55671 v 21.00904 21.00903 l -1.03518,1.93426 L 552.92963,417 H 550 547.07037 L 546.03518,415.06574 545,413.13148 V 402.06574 391 h -0.75482 -0.75482 l -2.82854,10.89651 -2.82854,10.89651 -1.47335,2.10349 -1.47334,2.10349 -2.69329,-0.0153 -2.6933,-0.0153 -1.21121,-0.76973 -1.21122,-0.76973 -1.40432,-3.46496 -1.40433,-3.46495 -2.38446,-9.5 -2.38446,-9.5 -0.5,12.09921 -0.5,12.09922 -1.37244,1.65078 -1.37245,1.65079 h -2.32085 -2.32085 l -1.55671,-2.22251 z M 550.06955,397 H 551 l 0.18148,2.25 0.18149,2.25 0.59065,-13.5 0.59066,-13.5 -0.40127,-1.79778 -0.40126,-1.79778 -5.12088,0.29778 L 541.5,371.5 l -2.59196,10 -2.59195,10 -0.69515,4 -0.69514,4 1.02179,-1.5 1.02178,-1.5 0.0787,2 0.0787,2 1.00273,-2.5 1.00272,-2.5 2.03543,-7.5 2.03542,-7.5 0.85608,-0.90762 0.85609,-0.90762 1.54238,1.28007 1.54238,1.28006 0.13618,10.12755 0.13618,10.12756 0.43337,-2.25 0.43337,-2.25 z m -34.08486,-8.69098 0.0153,-8.19099 1.08713,-0.67188 1.08713,-0.67189 0.93445,0.93445 0.93445,0.93445 2.6701,9.35338 2.6701,9.35338 0.39373,-1.18119 0.39373,-1.18119 0.91459,0.56525 0.91459,0.56524 v -1.23875 -1.23876 l -2.62315,-11.07026 -2.62315,-11.07026 -1.03926,-1.29816 -1.03926,-1.29816 -4.58759,0.29816 L 511.5,371.5 511.22097,384.75 510.94195,398 h 0.94569 0.94569 l 0.50439,-1.25 0.50439,-1.25 0.0943,2 0.0943,2 L 515,398 l 0.96937,-1.5 0.0153,-8.19098 z M 319.75,345.45448 319,344.66667 v -2.71089 -2.71089 l 1.25,-0.99182 1.25,-0.99181 9,-0.68321 9,-0.6832 9.68841,-1.95381 9.6884,-1.95381 8.8116,-3.11003 8.81159,-3.11004 9.5,-4.77284 9.5,-4.77284 7.91465,-5.68528 7.91465,-5.68527 5.90848,-5.13904 5.90848,-5.13903 6.76712,-8.03643 6.76713,-8.03643 4.22767,-6.29516 4.22767,-6.29515 4.83005,-9.70485 4.83005,-9.70484 3.01706,-9.5 3.01706,-9.5 1.66233,-8.5 1.66234,-8.5 0.55796,-12.54378 0.55797,-12.54379 -1.16805,-9.90406 -1.16805,-9.90406 -2.42843,-9.58011 -2.42844,-9.58011 -3.60701,-8.97204 -3.60702,-8.97205 -4.59108,-8 -4.59109,-8 -5.52691,-7.5 -5.52691,-7.5 -8.06384,-8.052707 L 414.5,81.394586 407,75.832 l -7.5,-5.562587 -7,-4.098015 -7,-4.098014 -9.54677,-3.987137 -9.54678,-3.987137 -9.45322,-2.450844 L 347.5,49.197422 338,48.090852 328.5,46.984282 324.60128,46.742141 320.70255,46.5 319.70402,44.904777 318.70549,43.309553 319.3718,40.654777 320.0381,38 h 6.40859 6.40859 l 7.82236,1.067417 7.82236,1.067417 9.79935,2.462527 9.79935,2.462526 7.47163,2.968049 7.47163,2.968049 6.72902,3.398501 6.72902,3.3985 9,5.974264 9,5.974264 7.58531,6.562698 7.58531,6.562698 7.04069,8.316545 7.04068,8.316545 5.68853,8.75233 5.68854,8.75234 4.38898,9.26523 4.38898,9.26523 3.10261,9.48243 3.1026,9.48244 1.94388,11.34937 L 474,177.19875 V 192 206.80125 l -1.94389,11.34938 -1.94388,11.34937 -3.10363,9.5 -3.10363,9.5 -4.86633,10.19818 -4.86634,10.19817 -5.21719,7.80183 -5.21719,7.80182 -7.00406,8.35092 -7.00405,8.35092 -8.36803,7.08841 -8.36803,7.0884 -7.24205,4.92459 -7.24205,4.9246 -9.50483,4.76203 -9.50482,4.76204 -9.23779,3.16494 -9.23778,3.16494 -8.76222,1.96906 -8.76221,1.96906 -11.5,0.61119 -11.5,0.61119 z m 27.75,-4.11009 8,-1.47603 5.5,-1.54129 5.5,-1.54129 10.04216,-3.88746 10.04217,-3.88746 9.30601,-5.49909 9.30602,-5.49909 8.1605,-6.37219 8.16051,-6.37218 8.64234,-9.08163 8.64235,-9.08162 6.19079,-9.25533 6.19078,-9.25533 4.28152,-8.5472 4.28152,-8.5472 2.71616,-7.5 2.71617,-7.5 2.48798,-10.5 2.48798,-10.5 0.54456,-17.5 0.54456,-17.5 -1.13848,-7.5 -1.13849,-7.5 -1.17298,-5.38538 -1.17298,-5.38538 -0.82969,1.88538 -0.82969,1.88538 0.45145,-3.5 0.45145,-3.5 -0.55339,1.36315 -0.55338,1.36316 -0.97328,-1.36316 -0.97328,-1.36315 0.62012,1.89899 0.62012,1.89899 1.70485,9.10101 1.70484,9.10101 -0.0182,18 -0.0182,18 -1.76789,8.874 -1.7679,8.87399 -2.54471,8.05545 -2.54471,8.05545 -3.50136,7.96351 -3.50135,7.96351 -4.45607,7.53713 -4.45608,7.53713 -6.30822,8.0786 -6.30823,8.0786 -9.11613,8.67517 -9.11612,8.67518 -9.84229,6.55228 -9.8423,6.55228 -9.44114,4.41187 -9.44114,4.41187 -9.9846,3.07687 -9.98459,3.07686 -8.54352,1.46628 -8.54352,1.46627 -7.20648,0.21042 -7.20648,0.21043 v 2.4667 2.4667 l 8.75,-0.70806 8.75,-0.70806 8,-1.47604 z M 467.15789,166 v -2.5 l 0.50439,1.25 0.50439,1.25 -0.50439,1.25 -0.50439,1.25 z m -1,-5 v -2.5 l 0.50439,1.25 0.50439,1.25 -0.50439,1.25 -0.50439,1.25 z M 305,330.34413 l -2.5,-0.38352 -3.25,-0.52562 -3.25,-0.52562 0.0153,-3.20468 0.0153,-3.20469 0.82102,-1.29421 0.82103,-1.2942 11.13586,1.11327 11.13587,1.11327 11.76262,-1.15852 11.76262,-1.15852 9.13238,-2.3728 9.13238,-2.37279 5.13102,-2.02246 5.13101,-2.02245 6.25178,-3.12498 6.25178,-3.12497 8.5,-5.60424 8.5,-5.60425 10.03608,-10.03607 10.03607,-10.03608 5.60537,-8.5 5.60536,-8.5 3.48293,-7 3.48293,-7 2.61002,-7.26633 2.61003,-7.26633 2.15916,-10.23367 L 449.28708,207.5 V 192 176.5 l -2.15916,-10.23367 -2.15916,-10.23367 -2.61106,-7.26633 -2.61106,-7.26633 -4.28066,-8.5 -4.28066,-8.5 -5.18446,-7.34361 -5.18447,-7.34362 -7.13024,-7.50629 -7.13025,-7.506298 -8.52796,-6.443375 L 389.5,81.913432 378.70485,76.474947 367.90971,71.036461 359.70485,68.552036 351.5,66.06761 l -4.3015,-1.086216 -4.30149,-1.086215 -0.48932,-1.275141 -0.48932,-1.275141 1.01607,-2.672448 L 343.9505,56 h 2.91288 2.91289 l 8.86186,2.560484 8.86187,2.560485 9.28173,4.062306 9.28172,4.062305 10.71828,7.071202 10.71827,7.071201 10.53898,10.556009 10.53898,10.556008 6.26212,9.39192 6.26211,9.39192 4.34768,9.10808 4.34767,9.10808 2.54552,8.12525 2.54551,8.12526 1.80571,8.37474 1.80572,8.37475 -0.0349,17.5 -0.0349,17.5 -1.82145,8.5 -1.82145,8.5 -2.51311,7.99043 -2.51311,7.99043 -3.90329,8.44866 -3.90328,8.44865 -6.66359,10.06091 -6.66359,10.06092 -10.56366,10.57458 -10.56367,10.57459 -10.71827,7.05262 -10.71828,7.05263 -9.28172,4.06231 -9.28173,4.0623 -9,2.61181 -9,2.61181 -9.5,1.44278 -9.5,1.44278 -11.5,-0.13029 -11.5,-0.13028 z m 39,-3.97215 8.5,-1.46332 10.14427,-3.39119 10.14428,-3.3912 8.85572,-4.46064 8.85573,-4.46064 8.76702,-6.25178 8.76701,-6.25178 9.73299,-10.13308 9.73298,-10.13308 4.99471,-7.46763 4.99471,-7.46764 4.21458,-8.37435 4.21458,-8.37435 2.53446,-7.62565 2.53446,-7.62565 2.02317,-9 2.02317,-9 0.63702,-14.27719 0.63702,-14.2772 -1.59172,-1.2228 -1.59173,-1.22281 -0.31221,-3 -0.31222,-3 -0.0919,16.5 -0.0918,16.5 -2.17376,10.23367 -2.17375,10.23367 -2.6106,7.26633 -2.61059,7.26633 -4.00119,8 -4.0012,8 -6.1226,8.96702 -6.12261,8.96702 -8.58618,8.53298 -8.58619,8.53298 -8.67337,6.1658 -8.67337,6.16581 -9.24045,4.51847 -9.24044,4.51847 -7.8407,2.55367 -7.8407,2.55366 -8.1593,1.76206 L 337.5,323.5 317.75,323.497 298,323.494 v 1.68146 1.68146 l 5.25,0.57253 5.25,0.57254 3.5,0.39454 3.5,0.39455 10,-0.47748 10,-0.47747 8.5,-1.46332 z M 454.32007,189 v -6.5 l 0.40333,3.25 0.40332,3.25 -0.40332,3.25 -0.40333,3.25 z m 0.34221,-14.25 -0.50439,-1.25 v 2.5 2.5 l 0.50439,-1.25 0.50439,-1.25 z M 306,315.04069 l -6.5,-0.83676 -8.8052,-2.09632 -8.8052,-2.09632 -2.05136,-1.09786 -2.05136,-1.09785 0.62531,-3.12654 0.62531,-3.12654 0.86366,-0.86366 0.86365,-0.86365 10.8676,2.8324 L 302.5,305.5 l 18,-0.0611 18,-0.0611 9.66954,-2.61094 9.66954,-2.61093 8.01961,-3.47534 8.01962,-3.47534 8.42324,-5.49055 8.42325,-5.49055 7.17883,-6.77214 7.17883,-6.77215 4.82078,-6.08997 4.82077,-6.08998 4.6561,-8.04887 4.6561,-8.04888 3.48579,-9.75281 3.48579,-9.75281 1.4961,-8.57931 L 434,203.73802 V 192 180.26198 l -1.48265,-8.50217 -1.48266,-8.50216 -3.10194,-8.87883 -3.10194,-8.87882 -4.00758,-7.5 -4.00759,-7.5 -4.88176,-6.58717 -4.88177,-6.58717 -8.27606,-7.93077 -8.27605,-7.93077 -7.18991,-4.768908 -7.18991,-4.76891 L 367.56009,87.97153 359,84.016758 v -0.961326 -0.961326 l 1.13545,-2.492041 1.13545,-2.492041 1.35387,-0.519529 1.35387,-0.519528 10.86828,5.44067 10.86828,5.440671 6.3924,4.686819 6.3924,4.686819 7.35075,7.087024 7.35075,7.08703 5.70722,7.55671 5.70723,7.55671 5.08481,9.94329 5.0848,9.94329 2.99816,9.5 2.99816,9.5 1.30551,7.5 1.30552,7.5 v 12.5 12.5 l -1.30552,7.5 -1.30551,7.5 -3.01297,9.5 -3.01296,9.5 -4.77173,9.52011 -4.77173,9.52011 -5.96436,7.97989 -5.96435,7.97989 -7.89189,7.5636 -7.89189,7.56361 -6.5,4.58803 -6.5,4.58803 -9,4.50472 -9,4.50473 -6.5,2.19058 -6.5,2.19058 -8.7489,1.91144 -8.7489,1.91145 -11.7511,0.43034 -11.7511,0.43034 z m 42.5,-5.38861 10,-2.52827 7.47038,-3.09606 7.47038,-3.09607 7.52962,-4.42382 7.52962,-4.42382 8.16713,-6.54612 8.16713,-6.54611 6.70366,-8.03727 6.70367,-8.03728 4.79177,-7.97277 4.79178,-7.97277 3.18973,-7.66209 3.18974,-7.66209 2.37301,-9.3547 2.37302,-9.3547 0.46392,-6.71907 0.46393,-6.71907 -0.79734,4 -0.79734,4 -0.2684,-4.5 -0.2684,-4.5 -0.89224,7 -0.89223,7 -2.50504,9.5 -2.50504,9.5 -5.43106,11.12852 -5.43107,11.12851 -5.98736,7.94583 -5.98736,7.94582 -6.91486,6.52313 -6.91486,6.52313 -6.39295,4.56183 -6.39294,4.56184 -8.46149,4.2222 -8.46148,4.2222 -6.93162,2.35759 -6.93162,2.3576 -7.25955,1.4995 -7.25956,1.4995 -9.84734,0.63057 -9.84734,0.63057 -9.03899,-1.11396 -9.039,-1.11395 -8.33813,-2.10854 -8.33813,-2.10854 -0.80689,1.30558 -0.80689,1.30558 0.48491,0.78461 0.48491,0.7846 5.62008,1.6338 5.62008,1.6338 7.57903,1.33981 7.57902,1.33981 15.5,-0.3703 15.5,-0.3703 z M 437.15789,211 v -2.5 l 0.50439,1.25 0.50439,1.25 -0.50439,1.25 -0.50439,1.25 z M 298,298.04131 l -8.5,-1.81798 -6.53542,-2.48608 -6.53542,-2.48609 -5.21458,-2.64243 L 266,285.96631 v -1.42739 -1.42739 l 2.25,-2.61069 2.25,-2.61069 8.62301,4.04352 8.623,4.04351 8.877,2.20641 8.87699,2.2064 h 14.5 14.5 l 8.93994,-2.22135 8.93995,-2.22136 9.41157,-4.4583 9.41158,-4.45831 6.29557,-4.49243 6.29558,-4.49243 6.12581,-6.12581 6.12581,-6.12581 4.3864,-6.1471 4.3864,-6.14709 4.181,-8.37892 4.181,-8.37892 2.57933,-9.62108 2.57934,-9.62108 0.0263,-15.5 0.0263,-15.5 -2.28009,-8.5 -2.2801,-8.5 -2.90599,-6.83154 -2.906,-6.83154 -5.51,-8.45308 -5.50999,-8.45308 -6.7763,-6.7763 -6.77631,-6.7763 -6.28534,-4.2683 -6.28535,-4.26829 -0.54816,-1.42851 -0.54817,-1.4285 1.633,-2.49228 L 373.04609,99 h 1.32011 1.32012 l 7.1296,5.00692 7.1296,5.00692 6.85206,6.92036 6.85206,6.92035 5.2506,7.59527 5.2506,7.59527 3.91624,8.35703 3.91624,8.35703 2.74469,9.87043 2.74469,9.87042 0.006,17.5 0.006,17.5 -2.29868,8.5 -2.29867,8.5 -3.36319,7.81854 -3.36318,7.81854 -3.33052,5.51701 -3.33052,5.51702 -6.28911,7.87533 -6.28911,7.87534 -8.21089,6.61057 -8.21089,6.61056 -7,3.9269 -7,3.92689 -8,3.12121 -8,3.1212 -9,1.86731 -9,1.86731 -13,-0.0572 -13,-0.0572 -8.5,-1.81797 z m 34.02623,-1.07731 8.47377,-1.03601 7.5,-1.99988 7.5,-1.99989 11,-5.37785 11,-5.37785 8.45934,-6.87692 8.45935,-6.87691 6.5539,-8.09639 6.5539,-8.09639 4.76386,-9.03519 4.76386,-9.03518 1.97289,-5.73432 L 421,221.6869 420.98469,220.59345 420.96937,219.5 420,221 l -0.96937,1.5 -0.0642,-1.5 -0.0642,-1.5 -2.31384,6.00656 -2.31384,6.00657 -3.2721,6.49343 -3.2721,6.49344 -4.40084,6.17697 -4.40084,6.17696 -5.71434,5.72242 -5.71434,5.72241 -6.5,4.94264 -6.5,4.94265 -10,4.86763 -10,4.86764 -7.5,2.02697 -7.5,2.02698 -9.82935,1.01414 -9.82935,1.01415 -9.17065,-1.02334 -9.17065,-1.02334 -5.98311,-1.51647 -5.98311,-1.51647 -8.51689,-3.50451 -8.51689,-3.50451 -1.12096,-0.51393 -1.12096,-0.51393 -0.68346,1.78109 -0.68347,1.78109 1.74851,1.27854 1.74851,1.27854 7.86965,3.03486 7.86965,3.03486 5.95524,1.52566 5.95524,1.52566 6.23103,0.81052 6.23102,0.81051 5.52623,0.12681 5.52624,0.1268 8.47376,-1.036 z M 307.5,284.28545 l -3,-0.41488 -6,-1.48692 -6,-1.48691 -6.62415,-2.48771 -6.62415,-2.4877 -5.87585,-3.53566 L 267.5,268.85 264.25,266.37411 261,263.89822 v -1.79412 -1.79412 l 1.82874,-1.65499 L 264.65748,257 h 1.14761 1.14761 l 6.64749,4.45824 6.64748,4.45823 7.29726,3.03786 7.29726,3.03785 6.8289,1.63385 6.82891,1.63385 12,-0.0446 12,-0.0446 8,-2.06675 8,-2.06674 9,-4.53008 9,-4.53008 7.30568,-6.05801 7.30569,-6.05801 5.69431,-7.68964 5.69432,-7.68963 3.24409,-7.05781 3.2441,-7.05781 2.11488,-7.93306 2.11489,-7.93306 V 192 179.5 l -2.12488,-8 -2.12488,-8 -3.43202,-7.24414 -3.43203,-7.24413 -3.13853,-4.5617 -3.13853,-4.5617 -5.99057,-6.40394 -5.99057,-6.40394 1.82702,-2.5088 1.82703,-2.5088 2.1661,-0.0314 2.16609,-0.0314 5.67535,6.25 5.67534,6.25 4.92279,7.47538 4.92279,7.47538 3.0031,7.78731 3.00311,7.78731 1.67877,6.73731 1.67877,6.73731 v 13.5 13.5 l -1.67877,6.73731 -1.67877,6.73731 -3.00311,7.78731 -3.0031,7.78731 -5.21094,7.97538 -5.21093,7.97538 -8.09838,8 -8.09838,8 -8.92973,5.27506 -8.92973,5.27507 -9.16213,2.93489 -9.16214,2.93489 -6.36305,1.03249 -6.36305,1.03249 -8.5,-0.14228 -8.5,-0.14227 -3,-0.41489 z m 36.5,-5.232 7.5,-2.16414 8,-3.90391 8,-3.90391 6.80066,-5.15833 6.80066,-5.15832 6.44205,-7.63242 6.44204,-7.63242 3.5734,-6.77204 3.5734,-6.77203 -1.25103,0.27203 -1.25104,0.27204 -4.65631,7 -4.65631,7 -4.78895,5.29173 -4.78895,5.29173 -5.79579,4.45976 -5.7958,4.45977 -7.32401,3.91029 -7.32402,3.9103 -8.5,2.78347 -8.5,2.78347 -15.5,0.0547 -15.5,0.0547 -7.91526,-2.29228 -7.91526,-2.29228 -6.94452,-3.48521 -6.94451,-3.48521 -4.44523,-3.05839 -4.44522,-3.0584 -1.445,0.5545 -1.445,0.5545 0.009,1.28139 0.009,1.28138 5.74852,3.70292 5.74852,3.70291 7.49273,3.45817 7.49274,3.45817 6,1.51828 6,1.51828 2.5,0.49319 2.5,0.4932 14.5,-0.31377 14.5,-0.31377 7.5,-2.16413 z m -31,-9.64281 -2.5,-0.43395 -6,-1.07308 -6,-1.07308 -6.45012,-2.56395 -6.45012,-2.56395 -5.83903,-3.42217 -5.83904,-3.42216 -6.46084,-6.04381 L 261,242.77069 v -1.31725 -1.31725 l 3.02419,-2.15341 3.02419,-2.15342 5.91414,5.47546 5.91415,5.47545 5.82126,3.53623 5.82127,3.53623 7.9904,2.80346 7.9904,2.80345 13.5,-0.0226 13.5,-0.0226 8.13052,-2.71302 8.13053,-2.71301 7.36947,-4.82263 7.36948,-4.82264 5.5,-6.01345 5.5,-6.01344 3.32059,-5.57323 3.32059,-5.57323 2.53487,-7.33493 2.53486,-7.33492 0.49854,-11.5 0.49854,-11.5 -1.55983,-6.62163 -1.55983,-6.62162 -2.48599,-5.62127 -2.48599,-5.62126 -3.66159,-5.51642 -3.66159,-5.51642 0.48232,-1.2569 0.48231,-1.2569 2.74361,-1.46833 2.74361,-1.46834 2.94824,3.48455 2.94823,3.48454 4.34028,9 4.34029,9 1.73473,7 1.73474,7 -0.0146,10.5 -0.0145,10.5 -1.63284,6.81905 -1.63285,6.81906 -3.39849,7.3556 -3.3985,7.3556 -3.3154,4.82534 -3.31541,4.82535 -4.03447,4.38355 -4.03448,4.38356 -5.5,4.22998 -5.5,4.22998 -7.36435,3.70662 -7.36435,3.70662 -7.3212,1.87245 -7.32119,1.87245 -8.31446,0.47969 -8.31445,0.47968 -2.5,-0.43394 z m 25.5,-4.87506 6,-1.59876 7,-3.32436 7,-3.32436 6.3766,-4.82398 6.3766,-4.82398 4.31925,-5.50317 4.31925,-5.50318 -0.45633,-0.73837 -0.45634,-0.73837 -7.34564,7.17148 -7.34565,7.17147 -7.39387,4.19442 -7.39387,4.19441 -8,2.73821 -8,2.7382 -12.5,0.0581 -12.5,0.0581 -7.47478,-2.33781 -7.47477,-2.33781 -5.02523,-2.53747 -5.02522,-2.53747 -4,-2.77504 -4,-2.77505 -4.34035,-4.21437 -4.34034,-4.21437 -1.60333,1.60333 -1.60333,1.60333 2.44367,2.61421 2.44368,2.61421 5.99335,4.51485 5.99336,4.51485 5.55892,2.80614 5.55893,2.80613 5.77858,1.67988 5.77857,1.67988 4.66915,0.85376 4.66914,0.85377 10,-0.38106 10,-0.38106 6,-1.59876 z m -33.5,-12.11166 -5.5,-1.44446 -7.36359,-3.6005 -7.3636,-3.60049 -7.20418,-6.84327 -7.20418,-6.84327 -1.93223,-3.62173 -1.93222,-3.62174 2.36078,-1.92423 L 271.22157,219 H 273.11078 275 v 0.98126 0.98125 l 6.64165,7.0405 6.64164,7.04049 8.10836,3.98208 8.10835,3.98208 7.75,1.17546 7.75,1.17546 7.75,-1.19673 7.75,-1.19673 7.31969,-3.46636 7.31968,-3.46637 6.34841,-6.09605 6.34842,-6.09606 3.56458,-6.78342 3.56459,-6.78342 1.62065,-6.88672 1.62065,-6.88672 -0.51238,-7.80256 -0.51237,-7.80257 -2.84096,-8.00324 -2.84096,-8.00323 2.5,-1.92197 2.5,-1.92196 1.22968,-0.0222 1.22967,-0.0222 2.08193,4.08092 2.08194,4.08093 1.93839,7.57904 L 382,184.32 v 7.68007 7.68007 l -1.97544,7.72392 -1.97545,7.72391 -3.23803,6.18605 -3.23803,6.18605 -8.03653,8.09358 -8.03652,8.09359 -7.5,3.64138 -7.5,3.64139 -5.9601,1.51503 -5.9601,1.51503 -9.0399,-0.0658 -9.0399,-0.0658 -5.5,-1.44446 z m 31.5,-3.58574 7,-2.0252 5.5,-3.33657 5.5,-3.33656 3.44617,-3.56992 L 361.39233,233 h -1.15176 -1.15176 l -5.57702,3.90672 -5.57703,3.90672 -6.40512,2.56414 -6.40512,2.56415 -6.81226,1.10075 -6.81226,1.10076 -5.5,-0.62574 -5.5,-0.62574 -5.45729,-1.53408 -5.45729,-1.53407 -4.60487,-2.33347 -4.60488,-2.33346 -5.43783,-4.45643 -5.43784,-4.45643 -3,-4.09827 -3,-4.09827 -1.69098,-0.0236 -1.69099,-0.0236 -0.56099,0.9077 -0.56099,0.90771 3.83077,4.84229 3.83077,4.8423 3.74418,3.28353 3.74419,3.28352 4.05363,2.55894 4.05363,2.55895 6.50091,2.44693 6.5009,2.44694 7.12249,0.74483 7.12248,0.74484 5,-0.35254 5,-0.35255 7,-2.02521 z m -27,-11.24343 -5,-1.23515 -4.5,-2.03002 -4.5,-2.03002 -5.10765,-4.06051 -5.10764,-4.06051 -4.14236,-6.20322 L 277,211.77209 v -2.35086 -2.35086 l 1.93426,-1.03519 L 280.86852,205 h 1.48894 1.48895 l 4.56912,6.87294 4.56912,6.87293 5.25767,3.59961 5.25768,3.59961 4.37573,1.52745 4.37572,1.52746 8.12428,-0.0237 8.12427,-0.0237 5.67841,-2.33554 5.67841,-2.33553 3.99044,-3.16049 3.99044,-3.16049 3.03417,-4.58076 3.03417,-4.58076 1.64027,-4.9384 1.64028,-4.9384 0.1567,-5.21108 L 357.5,188.5 l -0.81753,-5.05872 -0.81753,-5.05871 2.61458,-1.19129 L 361.09411,176 h 1.35512 1.35512 l 1.10722,3.17616 1.10721,3.17616 0.61137,6.57815 0.61138,6.57814 -1.64755,6.49569 -1.64756,6.4957 -2.72226,5.41905 -2.72226,5.41905 -5.63814,5.63814 -5.63813,5.63813 -6.36281,3.0911 -6.36282,3.09111 -5.29922,1.10171 -5.29922,1.10171 -4.70078,-0.085 -4.70078,-0.085 -5,-1.23516 z m 22.88054,-3.63057 6.59121,-2.03582 2.76413,-2.37911 2.76412,-2.37911 -0.59772,-0.59946 -0.59773,-0.59946 -5.90227,2.76439 L 331.5,231.5 h -11 -11 l -5.69221,-2.79528 -5.69221,-2.79529 -4.8861,-4.39302 -4.8861,-4.39302 -2.41997,-4.56169 L 283.50343,208 h -1.58505 -1.58505 l -0.62382,0.62382 -0.62382,0.62382 2.04994,4.01822 2.04994,4.01821 4.62281,4.94216 4.62281,4.94216 4.3321,2.53878 4.3321,2.53878 5.70231,1.82325 5.7023,1.82325 6.64466,0.0538 6.64467,0.0538 6.59121,-2.03582 z m -18.15802,-11.0156 -4.27749,-0.85367 -5.04136,-2.74386 -5.04137,-2.74386 -3.08004,-3.50796 -3.08003,-3.50797 -2.4687,-5.39233 -2.46869,-5.39234 1.36758,-1.32169 1.36758,-1.32169 2,-0.19676 2,-0.19676 1.17245,0.11516 1.17245,0.11515 1.20627,3.65503 1.20627,3.65504 4.28252,4.28252 4.28252,4.28252 4.33091,1.16619 4.33091,1.1662 5.19766,-0.43103 5.19766,-0.43103 4.05165,-2.68126 4.05165,-2.68126 2.61237,-3.94755 2.61237,-3.94756 0.71038,-6.02478 0.71038,-6.02478 0.48857,-0.48857 0.48857,-0.48858 3.44722,-0.28055 L 350.5,186.5 l 0.29909,6.3029 0.29909,6.30289 -2.4002,5.24274 -2.40021,5.24273 -3.23444,3.68383 -3.23444,3.68382 -6.16444,2.94411 -6.16445,2.94411 -4.5,0.47756 -4.5,0.47757 z m 15.27601,-4.46555 3.00147,-1.31988 -1.30902,-0.0816 -1.30901,-0.0816 0.5701,-0.92246 0.57011,-0.92245 -3.72506,1.02854 -3.72507,1.02854 -5.03603,-0.42796 -5.03602,-0.42796 -3.64966,-1.74445 -3.64966,-1.74445 -3.46062,-3.46062 -3.46061,-3.46061 -1.7916,-3.97306 -1.7916,-3.97306 h -1.28911 -1.28911 l -0.59083,0.95598 -0.59082,0.95598 1.58063,3.79402 1.58064,3.79402 3.70118,3.81297 3.70117,3.81298 3.18424,1.97794 3.18425,1.97795 4.31575,0.88643 4.31576,0.88643 4.49853,-0.52589 4.49853,-0.52589 3.00147,-1.31989 z m -15.49802,-11.55212 -2.49948,-1.05104 -2.34553,-2.18994 L 306.80997,201.5 305.40499,198.79966 304,196.09932 v -2.03061 -2.03061 l 2.42783,-0.60934 2.42783,-0.60935 1.92041,0.60952 1.92042,0.60951 1.13702,2.49551 1.13703,2.49551 2.51473,1.14578 2.51473,1.14579 2.51473,-1.14579 2.51473,-1.14578 1.15671,-2.53871 1.15671,-2.5387 2.25639,-0.56632 2.25639,-0.56632 2.17703,0.69097 2.17704,0.69096 -0.61641,3.14933 -0.61641,3.14933 -1.80025,2.43821 -1.80024,2.43821 -2.61372,1.95143 -2.61372,1.95142 -4.82449,0.35134 -4.82449,0.35134 z M 323,203.5 V 202 l -2.25,-0.004 -2.25,-0.004 -3.16071,-1.92726 -3.16072,-1.92727 -0.65667,-2.06899 -0.65668,-2.069 H 308.93261 307 v 1.04966 1.04966 l 1.51257,2.92499 1.51257,2.92499 2.73743,1.48531 2.73743,1.48531 3.75,0.04 3.75,0.04 v -1.5 z"
       id="path8" />
  </g>
</svg>
